STARTFONT 2.1
COMMENT
COMMENT Converted from OpenType font "xuong_regular.otf" by "otf2bdf 3.0".
COMMENT
FONT -FreeType-Xuong-Bold-R-Normal--17-120-100-100-P-83-ISO10646-1
SIZE 12 100 100
FONTBOUNDINGBOX 17 21 -1 -3
STARTPROPERTIES 19
FOUNDRY "FreeType"
FAMILY_NAME "Xuong"
WEIGHT_NAME "Bold"
SLANT "R"
SETWIDTH_NAME "Normal"
ADD_STYLE_NAME ""
PIXEL_SIZE 17
POINT_SIZE 120
RESOLUTION_X 100
RESOLUTION_Y 100
SPACING "P"
AVERAGE_WIDTH 83
CHARSET_REGISTRY "ISO10646"
CHARSET_ENCODING "1"
FONT_ASCENT 15
FONT_DESCENT 3
COPYRIGHT "-FreeType-Xuong-Bold-R-Normal--17-120-100-100-P-83-ISO10646-1"
_OTF_FONTFILE "xuong_regular.otf"
_OTF_PSNAME "Xuong"
ENDPROPERTIES
CHARS 445
STARTCHAR 0000
ENCODING 0
SWIDTH 0 0
DWIDTH 0 0
BBX 0 0 0 0
BITMAP
ENDCHAR
STARTCHAR 000D
ENCODING 13
SWIDTH 240 0
DWIDTH 4 0
BBX 0 0 0 0
BITMAP
ENDCHAR
STARTCHAR 0020
ENCODING 32
SWIDTH 240 0
DWIDTH 4 0
BBX 0 0 0 0
BITMAP
ENDCHAR
STARTCHAR 0021
ENCODING 33
SWIDTH 120 0
DWIDTH 2 0
BBX 3 12 0 0
BITMAP
40
E0
C0
40
40
40
40
40
40
00
C0
C0
ENDCHAR
STARTCHAR 0022
ENCODING 34
SWIDTH 240 0
DWIDTH 4 0
BBX 4 5 0 7
BITMAP
F0
F0
D0
D0
D0
ENDCHAR
STARTCHAR 0023
ENCODING 35
SWIDTH 720 0
DWIDTH 12 0
BBX 12 12 0 0
BITMAP
0640
04C0
0CC0
0C80
7FF0
0980
1980
FFE0
FFE0
1300
3300
3200
ENDCHAR
STARTCHAR 0024
ENCODING 36
SWIDTH 540 0
DWIDTH 9 0
BBX 7 15 1 -2
BITMAP
10
FC
FE
FE
E6
F0
78
3C
1E
0E
FE
FE
7E
10
10
ENDCHAR
STARTCHAR 0025
ENCODING 37
SWIDTH 600 0
DWIDTH 10 0
BBX 9 12 1 0
BITMAP
E300
F600
B600
FC00
0C00
0800
1800
1000
3700
2580
6580
6780
ENDCHAR
STARTCHAR 0026
ENCODING 38
SWIDTH 660 0
DWIDTH 11 0
BBX 10 12 1 0
BITMAP
3E00
7E00
7F00
6300
6700
FE00
C640
C7C0
C3C0
FF80
FFC0
7CC0
ENDCHAR
STARTCHAR 0027
ENCODING 39
SWIDTH 120 0
DWIDTH 2 0
BBX 2 5 0 7
BITMAP
C0
C0
C0
C0
C0
ENDCHAR
STARTCHAR 0028
ENCODING 40
SWIDTH 180 0
DWIDTH 3 0
BBX 4 13 0 -1
BITMAP
20
60
40
C0
C0
C0
C0
C0
C0
C0
60
60
30
ENDCHAR
STARTCHAR 0029
ENCODING 41
SWIDTH 180 0
DWIDTH 3 0
BBX 3 13 0 -1
BITMAP
C0
60
60
20
20
20
20
20
20
20
60
C0
C0
ENDCHAR
STARTCHAR 002A
ENCODING 42
SWIDTH 360 0
DWIDTH 6 0
BBX 6 6 0 6
BITMAP
30
74
FC
78
7C
30
ENDCHAR
STARTCHAR 002B
ENCODING 43
SWIDTH 420 0
DWIDTH 7 0
BBX 7 6 0 3
BITMAP
10
10
FE
FE
10
10
ENDCHAR
STARTCHAR 002C
ENCODING 44
SWIDTH 180 0
DWIDTH 3 0
BBX 3 4 0 -2
BITMAP
60
60
C0
80
ENDCHAR
STARTCHAR 002D
ENCODING 45
SWIDTH 420 0
DWIDTH 7 0
BBX 7 1 0 6
BITMAP
FE
ENDCHAR
STARTCHAR 002E
ENCODING 46
SWIDTH 120 0
DWIDTH 2 0
BBX 2 2 0 0
BITMAP
C0
C0
ENDCHAR
STARTCHAR 002F
ENCODING 47
SWIDTH 240 0
DWIDTH 4 0
BBX 5 14 0 -1
BITMAP
18
18
10
30
30
20
60
60
60
40
C0
C0
C0
80
ENDCHAR
STARTCHAR 0030
ENCODING 48
SWIDTH 540 0
DWIDTH 9 0
BBX 8 12 1 0
BITMAP
7E
FF
FF
C7
C7
C7
C7
C7
C7
FF
FF
7E
ENDCHAR
STARTCHAR 0031
ENCODING 49
SWIDTH 360 0
DWIDTH 6 0
BBX 5 12 1 0
BITMAP
38
78
F8
F8
F8
38
38
38
38
38
38
38
ENDCHAR
STARTCHAR 0032
ENCODING 50
SWIDTH 540 0
DWIDTH 9 0
BBX 7 12 1 0
BITMAP
7E
FE
FE
C6
0E
1E
3C
78
70
FE
FE
FE
ENDCHAR
STARTCHAR 0033
ENCODING 51
SWIDTH 480 0
DWIDTH 8 0
BBX 7 12 1 0
BITMAP
FE
FE
7E
0E
0E
7E
7E
0E
0E
7E
FE
FE
ENDCHAR
STARTCHAR 0034
ENCODING 52
SWIDTH 540 0
DWIDTH 9 0
BBX 8 12 1 0
BITMAP
1C
1E
3E
7E
7E
EE
EE
FF
FF
FF
0E
0E
ENDCHAR
STARTCHAR 0035
ENCODING 53
SWIDTH 480 0
DWIDTH 8 0
BBX 7 12 1 0
BITMAP
FE
FE
FC
C0
C0
FE
FE
0E
0E
7E
FE
FE
ENDCHAR
STARTCHAR 0036
ENCODING 54
SWIDTH 540 0
DWIDTH 9 0
BBX 7 12 1 0
BITMAP
FC
FE
FE
C6
C0
FE
FE
FE
C6
FE
FE
FE
ENDCHAR
STARTCHAR 0037
ENCODING 55
SWIDTH 480 0
DWIDTH 8 0
BBX 7 12 0 0
BITMAP
FE
7E
7E
0E
0E
0E
1C
1C
1C
38
38
38
ENDCHAR
STARTCHAR 0038
ENCODING 56
SWIDTH 540 0
DWIDTH 9 0
BBX 8 12 1 0
BITMAP
7E
FF
FF
C7
C7
FF
FF
C7
C7
FF
FF
7E
ENDCHAR
STARTCHAR 0039
ENCODING 57
SWIDTH 540 0
DWIDTH 9 0
BBX 7 12 1 0
BITMAP
FE
FE
FE
C6
EE
FE
FE
06
C6
FE
FE
7E
ENDCHAR
STARTCHAR 003A
ENCODING 58
SWIDTH 120 0
DWIDTH 2 0
BBX 2 8 0 0
BITMAP
C0
C0
00
00
00
00
C0
C0
ENDCHAR
STARTCHAR 003B
ENCODING 59
SWIDTH 120 0
DWIDTH 2 0
BBX 3 10 -1 -2
BITMAP
60
60
00
00
00
00
20
20
60
C0
ENDCHAR
STARTCHAR 003C
ENCODING 60
SWIDTH 360 0
DWIDTH 6 0
BBX 6 9 0 2
BITMAP
04
1C
78
E0
C0
F0
3C
1C
04
ENDCHAR
STARTCHAR 003D
ENCODING 61
SWIDTH 420 0
DWIDTH 7 0
BBX 7 5 0 3
BITMAP
FE
FE
00
FE
FE
ENDCHAR
STARTCHAR 003E
ENCODING 62
SWIDTH 360 0
DWIDTH 6 0
BBX 6 9 0 2
BITMAP
80
E0
78
1C
04
1C
78
E0
80
ENDCHAR
STARTCHAR 003F
ENCODING 63
SWIDTH 480 0
DWIDTH 8 0
BBX 7 12 1 0
BITMAP
7E
FE
FE
CE
0E
1C
18
18
18
00
18
18
ENDCHAR
STARTCHAR 0040
ENCODING 64
SWIDTH 780 0
DWIDTH 13 0
BBX 12 14 1 -2
BITMAP
FFE0
FFF0
8030
8E30
8F30
8B30
9B30
9930
9F30
97F0
91F0
8000
FE00
FE00
ENDCHAR
STARTCHAR 0041
ENCODING 65
SWIDTH 540 0
DWIDTH 9 0
BBX 10 12 0 0
BITMAP
1E00
3F00
3F00
3300
3300
7300
7380
7380
7F80
6D80
E180
E1C0
ENDCHAR
STARTCHAR 0042
ENCODING 66
SWIDTH 540 0
DWIDTH 9 0
BBX 8 12 1 0
BITMAP
FE
FF
FF
C7
C7
FF
FF
C7
C7
C7
FF
FE
ENDCHAR
STARTCHAR 0043
ENCODING 67
SWIDTH 540 0
DWIDTH 9 0
BBX 7 12 1 0
BITMAP
FC
FE
FE
C6
C0
C0
C0
C0
C0
FE
FE
FC
ENDCHAR
STARTCHAR 0044
ENCODING 68
SWIDTH 540 0
DWIDTH 9 0
BBX 8 12 1 0
BITMAP
FE
FF
FF
C7
C7
C7
C7
C7
C7
FF
FF
FE
ENDCHAR
STARTCHAR 0045
ENCODING 69
SWIDTH 540 0
DWIDTH 9 0
BBX 7 12 1 0
BITMAP
FC
FE
FE
C6
C0
F8
F8
C0
C0
FE
FE
FC
ENDCHAR
STARTCHAR 0046
ENCODING 70
SWIDTH 480 0
DWIDTH 8 0
BBX 7 12 1 0
BITMAP
FC
FE
FE
C6
C0
C0
FC
FC
C0
C0
C0
C0
ENDCHAR
STARTCHAR 0047
ENCODING 71
SWIDTH 540 0
DWIDTH 9 0
BBX 8 12 1 0
BITMAP
FC
FE
FF
C7
C0
CF
CF
CF
C7
FF
FF
FF
ENDCHAR
STARTCHAR 0048
ENCODING 72
SWIDTH 540 0
DWIDTH 9 0
BBX 8 12 1 0
BITMAP
C7
C7
C7
C7
E7
FF
FF
C7
C7
C7
C7
C7
ENDCHAR
STARTCHAR 0049
ENCODING 73
SWIDTH 180 0
DWIDTH 3 0
BBX 2 12 1 0
BITMAP
C0
C0
C0
C0
C0
C0
C0
C0
C0
C0
C0
C0
ENDCHAR
STARTCHAR 004A
ENCODING 74
SWIDTH 480 0
DWIDTH 8 0
BBX 7 12 1 0
BITMAP
7E
7E
7E
0E
0E
0E
0E
0E
0E
FE
FE
7E
ENDCHAR
STARTCHAR 004B
ENCODING 75
SWIDTH 540 0
DWIDTH 9 0
BBX 8 12 1 0
BITMAP
C7
C7
CE
DE
DC
F8
F8
FC
DC
CE
CF
C7
ENDCHAR
STARTCHAR 004C
ENCODING 76
SWIDTH 360 0
DWIDTH 6 0
BBX 6 12 1 0
BITMAP
C0
C0
C0
C0
C0
C0
C0
C0
C0
FC
FC
F8
ENDCHAR
STARTCHAR 004D
ENCODING 77
SWIDTH 660 0
DWIDTH 11 0
BBX 10 12 1 0
BITMAP
7380
F380
F7C0
F7C0
D7C0
DFC0
DFC0
DDC0
DDC0
C1C0
C1C0
C1C0
ENDCHAR
STARTCHAR 004E
ENCODING 78
SWIDTH 540 0
DWIDTH 9 0
BBX 8 12 1 0
BITMAP
47
E7
E7
F7
F7
FF
DF
DF
CF
CF
C7
C6
ENDCHAR
STARTCHAR 004F
ENCODING 79
SWIDTH 600 0
DWIDTH 10 0
BBX 9 12 1 0
BITMAP
7E00
FF00
FF80
C380
C380
C380
C380
C380
C380
FF80
FF00
7F00
ENDCHAR
STARTCHAR 0050
ENCODING 80
SWIDTH 540 0
DWIDTH 9 0
BBX 7 12 1 0
BITMAP
FC
FE
FE
C6
C6
CE
FE
FE
C0
C0
C0
C0
ENDCHAR
STARTCHAR 0051
ENCODING 81
SWIDTH 600 0
DWIDTH 10 0
BBX 10 12 1 0
BITMAP
7E00
FF00
FF80
C380
C380
C380
C380
C380
C380
FFC0
FFC0
7F80
ENDCHAR
STARTCHAR 0052
ENCODING 82
SWIDTH 540 0
DWIDTH 9 0
BBX 8 12 1 0
BITMAP
FC
FE
FE
C6
C6
FE
FC
FC
CE
CE
C7
C7
ENDCHAR
STARTCHAR 0053
ENCODING 83
SWIDTH 540 0
DWIDTH 9 0
BBX 7 12 1 0
BITMAP
FC
FE
FE
E6
F0
78
3C
1E
0E
FE
FE
7E
ENDCHAR
STARTCHAR 0054
ENCODING 84
SWIDTH 480 0
DWIDTH 8 0
BBX 9 12 0 0
BITMAP
7F00
FF00
FF80
DD80
1C00
1C00
1C00
1C00
1C00
1C00
1C00
1C00
ENDCHAR
STARTCHAR 0055
ENCODING 85
SWIDTH 600 0
DWIDTH 10 0
BBX 9 12 1 0
BITMAP
C380
C380
C380
C380
C380
C380
C380
C380
C380
FF80
FF00
7F00
ENDCHAR
STARTCHAR 0056
ENCODING 86
SWIDTH 540 0
DWIDTH 9 0
BBX 9 12 0 0
BITMAP
E180
E180
6180
6380
6380
6300
7300
3300
3300
3F00
3E00
3E00
ENDCHAR
STARTCHAR 0057
ENCODING 87
SWIDTH 840 0
DWIDTH 14 0
BBX 13 12 1 0
BITMAP
C038
C038
E038
E038
E730
6730
6D70
7DF0
7DF0
7DE0
39E0
38E0
ENDCHAR
STARTCHAR 0058
ENCODING 88
SWIDTH 600 0
DWIDTH 10 0
BBX 9 12 1 0
BITMAP
C380
E380
E700
6700
7E00
3E00
7E00
7E00
7700
E700
E780
C380
ENDCHAR
STARTCHAR 0059
ENCODING 89
SWIDTH 420 0
DWIDTH 7 0
BBX 8 12 0 0
BITMAP
C7
E7
E6
7E
7E
3C
3C
18
18
18
18
18
ENDCHAR
STARTCHAR 005A
ENCODING 90
SWIDTH 540 0
DWIDTH 9 0
BBX 8 12 1 0
BITMAP
FE
FE
FF
0E
1C
3C
38
78
70
FE
FF
7F
ENDCHAR
STARTCHAR 005B
ENCODING 91
SWIDTH 240 0
DWIDTH 4 0
BBX 4 13 0 -1
BITMAP
F0
C0
C0
C0
C0
C0
C0
C0
C0
C0
C0
F0
F0
ENDCHAR
STARTCHAR 005C
ENCODING 92
SWIDTH 240 0
DWIDTH 4 0
BBX 5 14 0 -1
BITMAP
80
C0
C0
C0
40
60
60
60
20
30
30
30
10
18
ENDCHAR
STARTCHAR 005D
ENCODING 93
SWIDTH 240 0
DWIDTH 4 0
BBX 4 13 0 -1
BITMAP
F0
30
30
30
30
30
30
30
30
30
30
70
F0
ENDCHAR
STARTCHAR 005E
ENCODING 94
SWIDTH 540 0
DWIDTH 9 0
BBX 8 6 1 6
BITMAP
38
3C
6C
66
C7
C3
ENDCHAR
STARTCHAR 005F
ENCODING 95
SWIDTH 420 0
DWIDTH 7 0
BBX 7 2 0 0
BITMAP
FE
FE
ENDCHAR
STARTCHAR 0060
ENCODING 96
SWIDTH 360 0
DWIDTH 6 0
BBX 6 2 0 12
BITMAP
F0
0C
ENDCHAR
STARTCHAR 0061
ENCODING 97
SWIDTH 540 0
DWIDTH 9 0
BBX 10 12 0 0
BITMAP
1E00
3F00
3F00
3300
3300
7300
7380
7380
7F80
6D80
E180
E1C0
ENDCHAR
STARTCHAR 0062
ENCODING 98
SWIDTH 540 0
DWIDTH 9 0
BBX 8 12 1 0
BITMAP
FE
FF
FF
C7
C7
FF
FF
C7
C7
C7
FF
FE
ENDCHAR
STARTCHAR 0063
ENCODING 99
SWIDTH 540 0
DWIDTH 9 0
BBX 7 12 1 0
BITMAP
FC
FE
FE
C6
C0
C0
C0
C0
C0
FE
FE
FC
ENDCHAR
STARTCHAR 0064
ENCODING 100
SWIDTH 540 0
DWIDTH 9 0
BBX 8 12 1 0
BITMAP
FE
FF
FF
C7
C7
C7
C7
C7
C7
FF
FF
FE
ENDCHAR
STARTCHAR 0065
ENCODING 101
SWIDTH 540 0
DWIDTH 9 0
BBX 7 12 1 0
BITMAP
FC
FE
FE
C6
C0
F8
F8
C0
C0
FE
FE
FC
ENDCHAR
STARTCHAR 0066
ENCODING 102
SWIDTH 480 0
DWIDTH 8 0
BBX 7 12 1 0
BITMAP
FC
FE
FE
C6
C0
C0
FC
FC
C0
C0
C0
C0
ENDCHAR
STARTCHAR 0067
ENCODING 103
SWIDTH 540 0
DWIDTH 9 0
BBX 8 12 1 0
BITMAP
FC
FE
FF
C7
C0
CF
CF
CF
C7
FF
FF
FF
ENDCHAR
STARTCHAR 0068
ENCODING 104
SWIDTH 540 0
DWIDTH 9 0
BBX 8 12 1 0
BITMAP
C7
C7
C7
C7
E7
FF
FF
C7
C7
C7
C7
C7
ENDCHAR
STARTCHAR 0069
ENCODING 105
SWIDTH 180 0
DWIDTH 3 0
BBX 2 12 1 0
BITMAP
C0
C0
C0
C0
C0
C0
C0
C0
C0
C0
C0
C0
ENDCHAR
STARTCHAR 006A
ENCODING 106
SWIDTH 480 0
DWIDTH 8 0
BBX 7 12 1 0
BITMAP
7E
7E
7E
0E
0E
0E
0E
0E
0E
FE
FE
7E
ENDCHAR
STARTCHAR 006B
ENCODING 107
SWIDTH 540 0
DWIDTH 9 0
BBX 8 12 1 0
BITMAP
C7
C7
CE
DE
DC
F8
F8
FC
DC
CE
CF
C7
ENDCHAR
STARTCHAR 006C
ENCODING 108
SWIDTH 360 0
DWIDTH 6 0
BBX 6 12 1 0
BITMAP
C0
C0
C0
C0
C0
C0
C0
C0
C0
FC
FC
F8
ENDCHAR
STARTCHAR 006D
ENCODING 109
SWIDTH 660 0
DWIDTH 11 0
BBX 10 12 1 0
BITMAP
7380
F380
F7C0
F7C0
D7C0
DFC0
DFC0
DDC0
DDC0
C1C0
C1C0
C1C0
ENDCHAR
STARTCHAR 006E
ENCODING 110
SWIDTH 540 0
DWIDTH 9 0
BBX 8 12 1 0
BITMAP
47
E7
E7
F7
F7
FF
DF
DF
CF
CF
C7
C6
ENDCHAR
STARTCHAR 006F
ENCODING 111
SWIDTH 600 0
DWIDTH 10 0
BBX 9 12 1 0
BITMAP
7E00
FF00
FF80
C380
C380
C380
C380
C380
C380
FF80
FF00
7F00
ENDCHAR
STARTCHAR 0070
ENCODING 112
SWIDTH 540 0
DWIDTH 9 0
BBX 7 12 1 0
BITMAP
FC
FE
FE
C6
C6
CE
FE
FE
C0
C0
C0
C0
ENDCHAR
STARTCHAR 0071
ENCODING 113
SWIDTH 600 0
DWIDTH 10 0
BBX 10 12 1 0
BITMAP
7E00
FF00
FF80
C380
C380
C380
C380
C380
C380
FFC0
FFC0
7F80
ENDCHAR
STARTCHAR 0072
ENCODING 114
SWIDTH 540 0
DWIDTH 9 0
BBX 8 12 1 0
BITMAP
FC
FE
FE
C6
C6
FE
FC
FC
CE
CE
C7
C7
ENDCHAR
STARTCHAR 0073
ENCODING 115
SWIDTH 540 0
DWIDTH 9 0
BBX 7 12 1 0
BITMAP
FC
FE
FE
E6
F0
78
3C
1E
0E
FE
FE
7E
ENDCHAR
STARTCHAR 0074
ENCODING 116
SWIDTH 480 0
DWIDTH 8 0
BBX 9 12 0 0
BITMAP
7F00
FF00
FF80
DD80
1C00
1C00
1C00
1C00
1C00
1C00
1C00
1C00
ENDCHAR
STARTCHAR 0075
ENCODING 117
SWIDTH 600 0
DWIDTH 10 0
BBX 9 12 1 0
BITMAP
C380
C380
C380
C380
C380
C380
C380
C380
C380
FF80
FF00
7F00
ENDCHAR
STARTCHAR 0076
ENCODING 118
SWIDTH 540 0
DWIDTH 9 0
BBX 9 12 0 0
BITMAP
E180
E180
6180
6380
6380
6300
7300
3300
3300
3F00
3E00
3E00
ENDCHAR
STARTCHAR 0077
ENCODING 119
SWIDTH 840 0
DWIDTH 14 0
BBX 13 12 1 0
BITMAP
C038
C038
E038
E038
E730
6730
6D70
7DF0
7DF0
7DE0
39E0
38E0
ENDCHAR
STARTCHAR 0078
ENCODING 120
SWIDTH 600 0
DWIDTH 10 0
BBX 9 12 1 0
BITMAP
C380
E380
E700
6700
7E00
3E00
7E00
7E00
7700
E700
E780
C380
ENDCHAR
STARTCHAR 0079
ENCODING 121
SWIDTH 420 0
DWIDTH 7 0
BBX 8 12 0 0
BITMAP
C7
E7
E6
7E
7E
3C
3C
18
18
18
18
18
ENDCHAR
STARTCHAR 007A
ENCODING 122
SWIDTH 540 0
DWIDTH 9 0
BBX 8 12 1 0
BITMAP
FE
FE
FF
0E
1C
3C
38
78
70
FE
FF
7F
ENDCHAR
STARTCHAR 007B
ENCODING 123
SWIDTH 240 0
DWIDTH 4 0
BBX 5 13 0 -1
BITMAP
78
60
60
60
60
60
C0
60
60
60
60
70
78
ENDCHAR
STARTCHAR 007C
ENCODING 124
SWIDTH 120 0
DWIDTH 2 0
BBX 2 13 0 -1
BITMAP
C0
C0
C0
C0
C0
C0
C0
C0
C0
C0
C0
C0
C0
ENDCHAR
STARTCHAR 007D
ENCODING 125
SWIDTH 240 0
DWIDTH 4 0
BBX 5 13 0 -1
BITMAP
E0
20
20
20
20
30
18
30
20
20
20
60
E0
ENDCHAR
STARTCHAR 007E
ENCODING 126
SWIDTH 420 0
DWIDTH 7 0
BBX 7 2 0 5
BITMAP
30
DE
ENDCHAR
STARTCHAR 00A1
ENCODING 161
SWIDTH 120 0
DWIDTH 2 0
BBX 3 12 0 0
BITMAP
C0
C0
00
40
40
40
40
40
40
C0
E0
E0
ENDCHAR
STARTCHAR 00A2
ENCODING 162
SWIDTH 540 0
DWIDTH 9 0
BBX 7 15 1 -2
BITMAP
30
FC
FE
FE
C6
C0
C0
C0
C0
C0
FE
FE
FC
30
30
ENDCHAR
STARTCHAR 00A3
ENCODING 163
SWIDTH 480 0
DWIDTH 8 0
BBX 7 12 1 0
BITMAP
FC
FE
FE
CE
E0
FE
FE
70
E0
FC
FE
FE
ENDCHAR
STARTCHAR 00A4
ENCODING 164
SWIDTH 300 0
DWIDTH 5 0
BBX 4 4 1 4
BITMAP
F0
B0
B0
F0
ENDCHAR
STARTCHAR 00A5
ENCODING 165
SWIDTH 420 0
DWIDTH 7 0
BBX 8 12 0 0
BITMAP
C7
E7
E6
7E
7E
3C
7E
7E
7E
7E
18
18
ENDCHAR
STARTCHAR 00A6
ENCODING 166
SWIDTH 120 0
DWIDTH 2 0
BBX 2 13 0 -1
BITMAP
C0
C0
C0
C0
C0
C0
00
C0
C0
C0
C0
C0
C0
ENDCHAR
STARTCHAR 00A7
ENCODING 167
SWIDTH 420 0
DWIDTH 7 0
BBX 6 12 1 0
BITMAP
F8
F8
CC
60
F0
F8
CC
7C
38
18
F8
F8
ENDCHAR
STARTCHAR 00A8
ENCODING 168
SWIDTH 240 0
DWIDTH 4 0
BBX 5 2 0 12
BITMAP
D8
D8
ENDCHAR
STARTCHAR 00A9
ENCODING 169
SWIDTH 720 0
DWIDTH 12 0
BBX 12 13 0 -1
BITMAP
FFF0
C030
C030
CF30
C930
C830
C830
C830
CF30
CF30
C030
FFF0
7FE0
ENDCHAR
STARTCHAR 00AB
ENCODING 171
SWIDTH 420 0
DWIDTH 7 0
BBX 7 7 0 2
BITMAP
10
32
6C
CC
6C
36
12
ENDCHAR
STARTCHAR 00AC
ENCODING 172
SWIDTH 540 0
DWIDTH 9 0
BBX 9 4 0 2
BITMAP
FF80
0180
0180
0180
ENDCHAR
STARTCHAR 00AE
ENCODING 174
SWIDTH 360 0
DWIDTH 6 0
BBX 6 7 0 5
BITMAP
FC
84
B4
B4
B4
84
FC
ENDCHAR
STARTCHAR 00AF
ENCODING 175
SWIDTH 420 0
DWIDTH 7 0
BBX 7 2 0 12
BITMAP
FE
FE
ENDCHAR
STARTCHAR 00B0
ENCODING 176
SWIDTH 240 0
DWIDTH 4 0
BBX 4 4 0 8
BITMAP
70
D0
F0
60
ENDCHAR
STARTCHAR 00B1
ENCODING 177
SWIDTH 420 0
DWIDTH 7 0
BBX 7 9 0 0
BITMAP
10
10
FE
FE
10
10
00
FE
FE
ENDCHAR
STARTCHAR 00B4
ENCODING 180
SWIDTH 360 0
DWIDTH 6 0
BBX 6 2 0 12
BITMAP
7C
C0
ENDCHAR
STARTCHAR 00B6
ENCODING 182
SWIDTH 420 0
DWIDTH 7 0
BBX 5 12 1 0
BITMAP
F0
F8
F8
F8
F8
F8
18
18
18
18
18
18
ENDCHAR
STARTCHAR 00B7
ENCODING 183
SWIDTH 120 0
DWIDTH 2 0
BBX 3 3 0 5
BITMAP
E0
E0
E0
ENDCHAR
STARTCHAR 00B8
ENCODING 184
SWIDTH 180 0
DWIDTH 3 0
BBX 2 2 1 -2
BITMAP
40
C0
ENDCHAR
STARTCHAR 00BB
ENCODING 187
SWIDTH 420 0
DWIDTH 7 0
BBX 7 7 0 2
BITMAP
80
CC
66
32
36
CC
88
ENDCHAR
STARTCHAR 00BC
ENCODING 188
SWIDTH 540 0
DWIDTH 9 0
BBX 8 12 1 0
BITMAP
42
C6
C4
4C
48
58
13
37
3F
2B
6F
43
ENDCHAR
STARTCHAR 00BD
ENCODING 189
SWIDTH 600 0
DWIDTH 10 0
BBX 9 12 1 0
BITMAP
4200
C600
C400
4C00
4800
5800
1780
3680
3180
2300
6600
4780
ENDCHAR
STARTCHAR 00BE
ENCODING 190
SWIDTH 600 0
DWIDTH 10 0
BBX 9 12 1 0
BITMAP
E100
E300
2200
E600
2400
EC00
0B00
1B00
1700
3500
2780
6100
ENDCHAR
STARTCHAR 00BF
ENCODING 191
SWIDTH 480 0
DWIDTH 8 0
BBX 7 12 1 0
BITMAP
30
30
00
00
30
30
70
E0
E6
FE
FE
FC
ENDCHAR
STARTCHAR 00C0
ENCODING 192
SWIDTH 540 0
DWIDTH 9 0
BBX 10 14 0 0
BITMAP
3C00
0700
1E00
3F00
3F00
3300
3300
7300
7380
7380
7F80
6D80
E180
E1C0
ENDCHAR
STARTCHAR 00C1
ENCODING 193
SWIDTH 540 0
DWIDTH 9 0
BBX 10 14 0 0
BITMAP
3F00
3000
1E00
3F00
3F00
3300
3300
7300
7380
7380
7F80
6D80
E180
E1C0
ENDCHAR
STARTCHAR 00C2
ENCODING 194
SWIDTH 540 0
DWIDTH 9 0
BBX 10 14 0 0
BITMAP
3F00
6100
1E00
3F00
3F00
3300
3300
7300
7380
7380
7F80
6D80
E180
E1C0
ENDCHAR
STARTCHAR 00C3
ENCODING 195
SWIDTH 540 0
DWIDTH 9 0
BBX 10 15 0 0
BITMAP
1000
7F00
4200
1E00
3F00
3F00
3300
3300
7300
7380
7380
7F80
6D80
E180
E1C0
ENDCHAR
STARTCHAR 00C4
ENCODING 196
SWIDTH 540 0
DWIDTH 9 0
BBX 10 14 0 0
BITMAP
1600
1600
1E00
3F00
3F00
3300
3300
7300
7380
7380
7F80
6D80
E180
E1C0
ENDCHAR
STARTCHAR 00C5
ENCODING 197
SWIDTH 540 0
DWIDTH 9 0
BBX 10 15 0 0
BITMAP
0C00
1400
0C00
1E00
3F00
3F00
3300
3300
7300
7380
7380
7F80
6D80
E180
E1C0
ENDCHAR
STARTCHAR 00C6
ENCODING 198
SWIDTH 840 0
DWIDTH 14 0
BBX 13 12 0 0
BITMAP
1FF0
3FF8
3FF8
3318
3300
73E0
73E0
7300
7F00
6FF8
E3F8
E3F0
ENDCHAR
STARTCHAR 00C7
ENCODING 199
SWIDTH 540 0
DWIDTH 9 0
BBX 7 14 1 -2
BITMAP
FC
FE
FE
C6
C0
C0
C0
C0
C0
FE
FE
FC
10
30
ENDCHAR
STARTCHAR 00C8
ENCODING 200
SWIDTH 540 0
DWIDTH 9 0
BBX 7 14 1 0
BITMAP
F0
0C
FC
FE
FE
C6
C0
F8
F8
C0
C0
FE
FE
FC
ENDCHAR
STARTCHAR 00C9
ENCODING 201
SWIDTH 540 0
DWIDTH 9 0
BBX 7 14 1 0
BITMAP
7C
C0
FC
FE
FE
C6
C0
F8
F8
C0
C0
FE
FE
FC
ENDCHAR
STARTCHAR 00CA
ENCODING 202
SWIDTH 540 0
DWIDTH 9 0
BBX 7 14 1 0
BITMAP
FC
84
FC
FE
FE
C6
C0
F8
F8
C0
C0
FE
FE
FC
ENDCHAR
STARTCHAR 00CB
ENCODING 203
SWIDTH 540 0
DWIDTH 9 0
BBX 7 14 1 0
BITMAP
68
68
FC
FE
FE
C6
C0
F8
F8
C0
C0
FE
FE
FC
ENDCHAR
STARTCHAR 00CC
ENCODING 204
SWIDTH 180 0
DWIDTH 3 0
BBX 6 14 -1 0
BITMAP
F0
0C
30
30
30
30
30
30
30
30
30
30
30
30
ENDCHAR
STARTCHAR 00CD
ENCODING 205
SWIDTH 180 0
DWIDTH 3 0
BBX 6 14 -1 0
BITMAP
FC
C0
30
30
30
30
30
30
30
30
30
30
30
30
ENDCHAR
STARTCHAR 00CE
ENCODING 206
SWIDTH 480 0
DWIDTH 8 0
BBX 6 14 1 0
BITMAP
FC
84
30
30
30
30
30
30
30
30
30
30
30
30
ENDCHAR
STARTCHAR 00CF
ENCODING 207
SWIDTH 180 0
DWIDTH 3 0
BBX 4 14 0 0
BITMAP
90
90
60
60
60
60
60
60
60
60
60
60
60
60
ENDCHAR
STARTCHAR 00D0
ENCODING 208
SWIDTH 540 0
DWIDTH 9 0
BBX 9 12 0 0
BITMAP
7F00
7F80
7F80
6380
6380
FB80
FB80
6380
6380
7F80
7F80
7F00
ENDCHAR
STARTCHAR 00D1
ENCODING 209
SWIDTH 540 0
DWIDTH 9 0
BBX 8 15 1 0
BITMAP
20
7E
84
47
E7
E7
F7
F7
FF
DF
DF
CF
CF
C7
C6
ENDCHAR
STARTCHAR 00D2
ENCODING 210
SWIDTH 600 0
DWIDTH 10 0
BBX 9 14 1 0
BITMAP
7800
0600
7E00
FF00
FF80
C380
C380
C380
C380
C380
C380
FF80
FF00
7F00
ENDCHAR
STARTCHAR 00D3
ENCODING 211
SWIDTH 600 0
DWIDTH 10 0
BBX 9 14 1 0
BITMAP
3E00
6000
7E00
FF00
FF80
C380
C380
C380
C380
C380
C380
FF80
FF00
7F00
ENDCHAR
STARTCHAR 00D4
ENCODING 212
SWIDTH 600 0
DWIDTH 10 0
BBX 9 14 1 0
BITMAP
7E00
4300
7E00
FF00
FF80
C380
C380
C380
C380
C380
C380
FF80
FF00
7F00
ENDCHAR
STARTCHAR 00D5
ENCODING 213
SWIDTH 600 0
DWIDTH 10 0
BBX 9 14 1 1
BITMAP
7F00
4600
7E00
FF00
FF80
C380
C380
C380
C380
C380
C380
FF80
FF00
7F00
ENDCHAR
STARTCHAR 00D6
ENCODING 214
SWIDTH 600 0
DWIDTH 10 0
BBX 9 14 1 0
BITMAP
3400
3400
7E00
FF00
FF80
C380
C380
C380
C380
C380
C380
FF80
FF00
7F00
ENDCHAR
STARTCHAR 00D7
ENCODING 215
SWIDTH 360 0
DWIDTH 6 0
BBX 5 5 1 3
BITMAP
98
F8
70
F8
88
ENDCHAR
STARTCHAR 00D8
ENCODING 216
SWIDTH 600 0
DWIDTH 10 0
BBX 9 14 1 -1
BITMAP
0300
7F00
FF00
FF80
CF80
CF80
CB80
DB80
D380
F380
FF80
FF00
7F00
C000
ENDCHAR
STARTCHAR 00D9
ENCODING 217
SWIDTH 600 0
DWIDTH 10 0
BBX 9 14 1 0
BITMAP
7800
0600
C380
C380
C380
C380
C380
C380
C380
C380
C380
FF80
FF00
7F00
ENDCHAR
STARTCHAR 00DA
ENCODING 218
SWIDTH 600 0
DWIDTH 10 0
BBX 9 14 1 0
BITMAP
3E00
6000
C380
C380
C380
C380
C380
C380
C380
C380
C380
FF80
FF00
7F00
ENDCHAR
STARTCHAR 00DB
ENCODING 219
SWIDTH 600 0
DWIDTH 10 0
BBX 9 14 1 0
BITMAP
7E00
4300
C380
C380
C380
C380
C380
C380
C380
C380
C380
FF80
FF00
7F00
ENDCHAR
STARTCHAR 00DC
ENCODING 220
SWIDTH 600 0
DWIDTH 10 0
BBX 9 14 1 0
BITMAP
3400
3400
C380
C380
C380
C380
C380
C380
C380
C380
C380
FF80
FF00
7F00
ENDCHAR
STARTCHAR 00DD
ENCODING 221
SWIDTH 420 0
DWIDTH 7 0
BBX 8 14 0 0
BITMAP
7E
60
C7
E7
E6
7E
7E
3C
3C
18
18
18
18
18
ENDCHAR
STARTCHAR 00DE
ENCODING 222
SWIDTH 540 0
DWIDTH 9 0
BBX 7 14 1 0
BITMAP
C0
C0
FC
FE
FE
C6
C6
CE
FE
FE
C0
C0
C0
C0
ENDCHAR
STARTCHAR 00DF
ENCODING 223
SWIDTH 540 0
DWIDTH 9 0
BBX 8 12 1 0
BITMAP
7E
FF
FF
C7
C7
DF
DF
C7
C7
C7
DF
DE
ENDCHAR
STARTCHAR 00E0
ENCODING 224
SWIDTH 540 0
DWIDTH 9 0
BBX 10 14 0 0
BITMAP
3C00
0700
1E00
3F00
3F00
3300
3300
7300
7380
7380
7F80
6D80
E180
E1C0
ENDCHAR
STARTCHAR 00E1
ENCODING 225
SWIDTH 540 0
DWIDTH 9 0
BBX 10 14 0 0
BITMAP
3F00
3000
1E00
3F00
3F00
3300
3300
7300
7380
7380
7F80
6D80
E180
E1C0
ENDCHAR
STARTCHAR 00E2
ENCODING 226
SWIDTH 540 0
DWIDTH 9 0
BBX 10 14 0 0
BITMAP
3F00
6100
1E00
3F00
3F00
3300
3300
7300
7380
7380
7F80
6D80
E180
E1C0
ENDCHAR
STARTCHAR 00E3
ENCODING 227
SWIDTH 540 0
DWIDTH 9 0
BBX 10 15 0 0
BITMAP
1000
7F00
4200
1E00
3F00
3F00
3300
3300
7300
7380
7380
7F80
6D80
E180
E1C0
ENDCHAR
STARTCHAR 00E4
ENCODING 228
SWIDTH 540 0
DWIDTH 9 0
BBX 10 14 0 0
BITMAP
1600
1600
1E00
3F00
3F00
3300
3300
7300
7380
7380
7F80
6D80
E180
E1C0
ENDCHAR
STARTCHAR 00E5
ENCODING 229
SWIDTH 540 0
DWIDTH 9 0
BBX 10 15 0 0
BITMAP
0C00
1400
0C00
1E00
3F00
3F00
3300
3300
7300
7380
7380
7F80
6D80
E180
E1C0
ENDCHAR
STARTCHAR 00E6
ENCODING 230
SWIDTH 840 0
DWIDTH 14 0
BBX 13 12 0 0
BITMAP
1FF0
3FF8
3FF8
3318
3300
73E0
73E0
7300
7F00
6FF8
E3F8
E3F0
ENDCHAR
STARTCHAR 00E7
ENCODING 231
SWIDTH 540 0
DWIDTH 9 0
BBX 7 14 1 -2
BITMAP
FC
FE
FE
C6
C0
C0
C0
C0
C0
FE
FE
FC
10
30
ENDCHAR
STARTCHAR 00E8
ENCODING 232
SWIDTH 540 0
DWIDTH 9 0
BBX 7 14 1 0
BITMAP
F0
0C
FC
FE
FE
C6
C0
F8
F8
C0
C0
FE
FE
FC
ENDCHAR
STARTCHAR 00E9
ENCODING 233
SWIDTH 540 0
DWIDTH 9 0
BBX 7 14 1 0
BITMAP
7C
C0
FC
FE
FE
C6
C0
F8
F8
C0
C0
FE
FE
FC
ENDCHAR
STARTCHAR 00EA
ENCODING 234
SWIDTH 540 0
DWIDTH 9 0
BBX 7 14 1 0
BITMAP
FC
84
FC
FE
FE
C6
C0
F8
F8
C0
C0
FE
FE
FC
ENDCHAR
STARTCHAR 00EB
ENCODING 235
SWIDTH 540 0
DWIDTH 9 0
BBX 7 14 1 0
BITMAP
68
68
FC
FE
FE
C6
C0
F8
F8
C0
C0
FE
FE
FC
ENDCHAR
STARTCHAR 00EC
ENCODING 236
SWIDTH 180 0
DWIDTH 3 0
BBX 6 14 -1 0
BITMAP
F0
1C
30
30
30
30
30
30
30
30
30
30
30
30
ENDCHAR
STARTCHAR 00ED
ENCODING 237
SWIDTH 180 0
DWIDTH 3 0
BBX 6 14 -1 0
BITMAP
FC
C0
30
30
30
30
30
30
30
30
30
30
30
30
ENDCHAR
STARTCHAR 00EE
ENCODING 238
SWIDTH 480 0
DWIDTH 8 0
BBX 6 14 1 0
BITMAP
FC
84
38
38
38
38
38
38
38
38
38
38
38
38
ENDCHAR
STARTCHAR 00EF
ENCODING 239
SWIDTH 180 0
DWIDTH 3 0
BBX 4 14 0 0
BITMAP
90
90
60
60
60
60
60
60
60
60
60
60
60
60
ENDCHAR
STARTCHAR 00F0
ENCODING 240
SWIDTH 540 0
DWIDTH 9 0
BBX 9 12 0 0
BITMAP
7F00
7F80
7F80
6380
6380
FB80
FB80
6380
6380
7F80
7F80
7F00
ENDCHAR
STARTCHAR 00F1
ENCODING 241
SWIDTH 540 0
DWIDTH 9 0
BBX 8 15 1 0
BITMAP
20
7E
84
47
E7
E7
F7
F7
FF
DF
DF
CF
CF
C7
C6
ENDCHAR
STARTCHAR 00F2
ENCODING 242
SWIDTH 600 0
DWIDTH 10 0
BBX 9 14 1 0
BITMAP
7800
0E00
7E00
FF00
FF80
C380
C380
C380
C380
C380
C380
FF80
FF00
7F00
ENDCHAR
STARTCHAR 00F3
ENCODING 243
SWIDTH 600 0
DWIDTH 10 0
BBX 9 14 1 0
BITMAP
7E00
6000
7E00
FF00
FF80
C380
C380
C380
C380
C380
C380
FF80
FF00
7F00
ENDCHAR
STARTCHAR 00F4
ENCODING 244
SWIDTH 600 0
DWIDTH 10 0
BBX 9 14 1 0
BITMAP
7E00
4300
7E00
FF00
FF80
C380
C380
C380
C380
C380
C380
FF80
FF00
7F00
ENDCHAR
STARTCHAR 00F5
ENCODING 245
SWIDTH 600 0
DWIDTH 10 0
BBX 9 14 1 1
BITMAP
7F00
4600
7E00
FF00
FF80
C380
C380
C380
C380
C380
C380
FF80
FF00
7F00
ENDCHAR
STARTCHAR 00F6
ENCODING 246
SWIDTH 600 0
DWIDTH 10 0
BBX 9 14 1 0
BITMAP
3400
3400
7E00
FF00
FF80
C380
C380
C380
C380
C380
C380
FF80
FF00
7F00
ENDCHAR
STARTCHAR 00F7
ENCODING 247
SWIDTH 420 0
DWIDTH 7 0
BBX 7 6 0 3
BITMAP
10
10
FE
FE
10
10
ENDCHAR
STARTCHAR 00F8
ENCODING 248
SWIDTH 600 0
DWIDTH 10 0
BBX 9 14 1 -1
BITMAP
0300
7F00
FF00
FF80
CF80
CF80
CB80
DB80
D380
F380
FF80
FF00
7F00
C000
ENDCHAR
STARTCHAR 00F9
ENCODING 249
SWIDTH 600 0
DWIDTH 10 0
BBX 9 14 1 0
BITMAP
7800
0600
C380
C380
C380
C380
C380
C380
C380
C380
C380
FF80
FF00
7F00
ENDCHAR
STARTCHAR 00FA
ENCODING 250
SWIDTH 600 0
DWIDTH 10 0
BBX 9 14 1 0
BITMAP
3E00
6000
C380
C380
C380
C380
C380
C380
C380
C380
C380
FF80
FF00
7F00
ENDCHAR
STARTCHAR 00FB
ENCODING 251
SWIDTH 600 0
DWIDTH 10 0
BBX 9 14 1 0
BITMAP
7E00
4300
C380
C380
C380
C380
C380
C380
C380
C380
C380
FF80
FF00
7F00
ENDCHAR
STARTCHAR 00FC
ENCODING 252
SWIDTH 600 0
DWIDTH 10 0
BBX 9 14 1 0
BITMAP
3400
3400
C380
C380
C380
C380
C380
C380
C380
C380
C380
FF80
FF00
7F00
ENDCHAR
STARTCHAR 00FD
ENCODING 253
SWIDTH 420 0
DWIDTH 7 0
BBX 8 14 0 0
BITMAP
7E
60
C7
E7
E6
7E
7E
3C
3C
18
18
18
18
18
ENDCHAR
STARTCHAR 00FE
ENCODING 254
SWIDTH 540 0
DWIDTH 9 0
BBX 7 14 1 0
BITMAP
C0
C0
FC
FE
FE
C6
C6
CE
FE
FE
C0
C0
C0
C0
ENDCHAR
STARTCHAR 00FF
ENCODING 255
SWIDTH 420 0
DWIDTH 7 0
BBX 8 14 0 0
BITMAP
24
24
C7
E7
E6
7E
7E
3C
3C
18
18
18
18
18
ENDCHAR
STARTCHAR 0100
ENCODING 256
SWIDTH 540 0
DWIDTH 9 0
BBX 10 14 0 0
BITMAP
3F00
3F00
1E00
3F00
3F00
3300
3300
7300
7380
7380
7F80
6D80
E180
E1C0
ENDCHAR
STARTCHAR 0101
ENCODING 257
SWIDTH 540 0
DWIDTH 9 0
BBX 10 14 0 0
BITMAP
3F00
3F00
1E00
3F00
3F00
3300
3300
7300
7380
7380
7F80
6D80
E180
E1C0
ENDCHAR
STARTCHAR 0102
ENCODING 258
SWIDTH 540 0
DWIDTH 9 0
BBX 10 14 0 0
BITMAP
7F00
3E00
1E00
3F00
3F00
3300
3300
7300
7380
7380
7F80
6D80
E180
E1C0
ENDCHAR
STARTCHAR 0103
ENCODING 259
SWIDTH 540 0
DWIDTH 9 0
BBX 10 14 0 0
BITMAP
7F00
3E00
1E00
3F00
3F00
3300
3300
7300
7380
7380
7F80
6D80
E180
E1C0
ENDCHAR
STARTCHAR 0104
ENCODING 260
SWIDTH 540 0
DWIDTH 9 0
BBX 11 15 0 -3
BITMAP
1E00
3F00
3F00
3300
3300
7300
7380
7380
7F80
6D80
E180
E1C0
0080
00A0
00C0
ENDCHAR
STARTCHAR 0105
ENCODING 261
SWIDTH 540 0
DWIDTH 9 0
BBX 11 15 0 -3
BITMAP
1E00
3F00
3F00
3300
3300
7300
7380
7380
7F80
6D80
E180
E1C0
0080
00A0
00C0
ENDCHAR
STARTCHAR 0106
ENCODING 262
SWIDTH 540 0
DWIDTH 9 0
BBX 7 14 1 0
BITMAP
7E
60
FC
FE
FE
C6
C0
C0
C0
C0
C0
FE
FE
FC
ENDCHAR
STARTCHAR 0107
ENCODING 263
SWIDTH 540 0
DWIDTH 9 0
BBX 7 14 1 0
BITMAP
7E
60
FC
FE
FE
C6
C0
C0
C0
C0
C0
FE
FE
FC
ENDCHAR
STARTCHAR 0108
ENCODING 264
SWIDTH 540 0
DWIDTH 9 0
BBX 7 14 1 0
BITMAP
FC
84
FC
FE
FE
C6
C0
C0
C0
C0
C0
FE
FE
FC
ENDCHAR
STARTCHAR 0109
ENCODING 265
SWIDTH 540 0
DWIDTH 9 0
BBX 7 14 1 0
BITMAP
FC
84
FC
FE
FE
C6
C0
C0
C0
C0
C0
FE
FE
FC
ENDCHAR
STARTCHAR 010A
ENCODING 266
SWIDTH 540 0
DWIDTH 9 0
BBX 7 14 1 0
BITMAP
18
10
FC
FE
FE
C6
C0
C0
C0
C0
C0
FE
FE
FC
ENDCHAR
STARTCHAR 010B
ENCODING 267
SWIDTH 540 0
DWIDTH 9 0
BBX 7 14 1 0
BITMAP
18
10
FC
FE
FE
C6
C0
C0
C0
C0
C0
FE
FE
FC
ENDCHAR
STARTCHAR 010C
ENCODING 268
SWIDTH 540 0
DWIDTH 9 0
BBX 7 14 1 0
BITMAP
68
30
FC
FE
FE
C6
C0
C0
C0
C0
C0
FE
FE
FC
ENDCHAR
STARTCHAR 010D
ENCODING 269
SWIDTH 540 0
DWIDTH 9 0
BBX 7 14 1 0
BITMAP
68
30
FC
FE
FE
C6
C0
C0
C0
C0
C0
FE
FE
FC
ENDCHAR
STARTCHAR 010E
ENCODING 270
SWIDTH 540 0
DWIDTH 9 0
BBX 8 14 1 0
BITMAP
2C
18
FE
FF
FF
C7
C7
C7
C7
C7
C7
FF
FF
FE
ENDCHAR
STARTCHAR 010F
ENCODING 271
SWIDTH 720 0
DWIDTH 12 0
BBX 12 12 1 0
BITMAP
FE20
FF30
FF20
C760
C700
C700
C700
C700
C700
FF00
FF00
FE00
ENDCHAR
STARTCHAR 0110
ENCODING 272
SWIDTH 540 0
DWIDTH 9 0
BBX 9 12 0 0
BITMAP
7F00
7F80
7F80
6380
6380
FB80
FB80
6380
6380
7F80
7F80
7F00
ENDCHAR
STARTCHAR 0111
ENCODING 273
SWIDTH 540 0
DWIDTH 9 0
BBX 9 12 0 0
BITMAP
7F00
7F80
7F80
6380
6380
FB80
FB80
6380
6380
7F80
7F80
7F00
ENDCHAR
STARTCHAR 0112
ENCODING 274
SWIDTH 540 0
DWIDTH 9 0
BBX 7 14 1 0
BITMAP
FC
FC
FC
FE
FE
C6
C0
F8
F8
C0
C0
FE
FE
FC
ENDCHAR
STARTCHAR 0113
ENCODING 275
SWIDTH 540 0
DWIDTH 9 0
BBX 7 14 1 0
BITMAP
FC
FC
FC
FE
FE
C6
C0
F8
F8
C0
C0
FE
FE
FC
ENDCHAR
STARTCHAR 0116
ENCODING 278
SWIDTH 540 0
DWIDTH 9 0
BBX 7 14 1 0
BITMAP
30
30
FC
FE
FE
C6
C0
F8
F8
C0
C0
FE
FE
FC
ENDCHAR
STARTCHAR 0117
ENCODING 279
SWIDTH 540 0
DWIDTH 9 0
BBX 7 14 1 0
BITMAP
30
30
FC
FE
FE
C6
C0
F8
F8
C0
C0
FE
FE
FC
ENDCHAR
STARTCHAR 0118
ENCODING 280
SWIDTH 540 0
DWIDTH 9 0
BBX 7 15 1 -3
BITMAP
FC
FE
FE
C6
C0
F8
F8
C0
C0
FE
FE
FC
30
28
30
ENDCHAR
STARTCHAR 0119
ENCODING 281
SWIDTH 540 0
DWIDTH 9 0
BBX 7 15 1 -3
BITMAP
FC
FE
FE
C6
C0
F8
F8
C0
C0
FE
FE
FC
30
28
30
ENDCHAR
STARTCHAR 011C
ENCODING 284
SWIDTH 540 0
DWIDTH 9 0
BBX 8 14 1 0
BITMAP
FE
C6
FC
FE
FF
C7
C0
CF
CF
CF
C7
FF
FF
FF
ENDCHAR
STARTCHAR 011D
ENCODING 285
SWIDTH 540 0
DWIDTH 9 0
BBX 8 14 1 0
BITMAP
FE
C6
FC
FE
FF
C7
C0
CF
CF
CF
C7
FF
FF
FF
ENDCHAR
STARTCHAR 011E
ENCODING 286
SWIDTH 540 0
DWIDTH 9 0
BBX 8 14 1 0
BITMAP
FE
7C
FC
FE
FF
C7
C0
CF
CF
CF
C7
FF
FF
FF
ENDCHAR
STARTCHAR 011F
ENCODING 287
SWIDTH 540 0
DWIDTH 9 0
BBX 8 14 1 0
BITMAP
FE
7C
FC
FE
FF
C7
C0
CF
CF
CF
C7
FF
FF
FF
ENDCHAR
STARTCHAR 0120
ENCODING 288
SWIDTH 540 0
DWIDTH 9 0
BBX 8 14 1 0
BITMAP
18
10
FC
FE
FF
C7
C0
CF
CF
CF
C7
FF
FF
FF
ENDCHAR
STARTCHAR 0121
ENCODING 289
SWIDTH 540 0
DWIDTH 9 0
BBX 8 14 1 0
BITMAP
18
10
FC
FE
FF
C7
C0
CF
CF
CF
C7
FF
FF
FF
ENDCHAR
STARTCHAR 0122
ENCODING 290
SWIDTH 540 0
DWIDTH 9 0
BBX 8 15 1 -3
BITMAP
FC
FE
FF
C7
C0
CF
CF
CF
C7
FF
FF
FF
10
10
30
ENDCHAR
STARTCHAR 0123
ENCODING 291
SWIDTH 540 0
DWIDTH 9 0
BBX 8 15 1 -3
BITMAP
FC
FE
FF
C7
C0
CF
CF
CF
C7
FF
FF
FF
10
10
30
ENDCHAR
STARTCHAR 0124
ENCODING 292
SWIDTH 540 0
DWIDTH 9 0
BBX 8 14 1 0
BITMAP
7E
C2
C7
C7
C7
C7
E7
FF
FF
C7
C7
C7
C7
C7
ENDCHAR
STARTCHAR 0125
ENCODING 293
SWIDTH 540 0
DWIDTH 9 0
BBX 8 14 1 0
BITMAP
7E
C2
C7
C7
C7
C7
E7
FF
FF
C7
C7
C7
C7
C7
ENDCHAR
STARTCHAR 0126
ENCODING 294
SWIDTH 540 0
DWIDTH 9 0
BBX 11 12 -1 0
BITMAP
31C0
FFE0
FFE0
31C0
39C0
3FC0
3FC0
31C0
31C0
31C0
31C0
31C0
ENDCHAR
STARTCHAR 0127
ENCODING 295
SWIDTH 540 0
DWIDTH 9 0
BBX 11 12 -1 0
BITMAP
31C0
FFE0
FFE0
31C0
39C0
3FC0
3FC0
31C0
31C0
31C0
31C0
31C0
ENDCHAR
STARTCHAR 0128
ENCODING 296
SWIDTH 180 0
DWIDTH 3 0
BBX 6 14 -1 1
BITMAP
FC
08
30
30
30
30
30
30
30
30
30
30
30
30
ENDCHAR
STARTCHAR 0129
ENCODING 297
SWIDTH 180 0
DWIDTH 3 0
BBX 6 14 -1 1
BITMAP
FC
08
30
30
30
30
30
30
30
30
30
30
30
30
ENDCHAR
STARTCHAR 012A
ENCODING 298
SWIDTH 180 0
DWIDTH 3 0
BBX 6 14 -1 0
BITMAP
FC
FC
30
30
30
30
30
30
30
30
30
30
30
30
ENDCHAR
STARTCHAR 012B
ENCODING 299
SWIDTH 180 0
DWIDTH 3 0
BBX 6 14 -1 0
BITMAP
FC
FC
30
30
30
30
30
30
30
30
30
30
30
30
ENDCHAR
STARTCHAR 012E
ENCODING 302
SWIDTH 180 0
DWIDTH 3 0
BBX 2 15 1 -3
BITMAP
C0
C0
C0
C0
C0
C0
C0
C0
C0
C0
C0
C0
80
C0
C0
ENDCHAR
STARTCHAR 012F
ENCODING 303
SWIDTH 180 0
DWIDTH 3 0
BBX 2 15 1 -3
BITMAP
C0
C0
C0
C0
C0
C0
C0
C0
C0
C0
C0
C0
80
C0
C0
ENDCHAR
STARTCHAR 0134
ENCODING 308
SWIDTH 480 0
DWIDTH 8 0
BBX 7 14 1 0
BITMAP
7C
46
7E
7E
7E
0E
0E
0E
0E
0E
0E
FE
FE
7E
ENDCHAR
STARTCHAR 0135
ENCODING 309
SWIDTH 480 0
DWIDTH 8 0
BBX 7 14 1 0
BITMAP
7C
46
7E
7E
7E
0E
0E
0E
0E
0E
0E
FE
FE
7E
ENDCHAR
STARTCHAR 0136
ENCODING 310
SWIDTH 540 0
DWIDTH 9 0
BBX 8 15 1 -3
BITMAP
C7
C7
CE
DE
DC
F8
F8
FC
DC
CE
CF
C7
10
10
10
ENDCHAR
STARTCHAR 0137
ENCODING 311
SWIDTH 540 0
DWIDTH 9 0
BBX 8 15 1 -3
BITMAP
C7
C7
CE
DE
DC
F8
F8
FC
DC
CE
CF
C7
10
10
10
ENDCHAR
STARTCHAR 0139
ENCODING 313
SWIDTH 360 0
DWIDTH 6 0
BBX 8 14 -1 0
BITMAP
7C
C0
30
30
30
30
30
30
30
30
30
3F
3F
3E
ENDCHAR
STARTCHAR 013A
ENCODING 314
SWIDTH 360 0
DWIDTH 6 0
BBX 8 14 -1 0
BITMAP
7C
C0
30
30
30
30
30
30
30
30
30
3F
3F
3E
ENDCHAR
STARTCHAR 013C
ENCODING 316
SWIDTH 360 0
DWIDTH 6 0
BBX 6 15 1 -3
BITMAP
C0
C0
C0
C0
C0
C0
C0
C0
C0
FC
FC
F8
20
20
20
ENDCHAR
STARTCHAR 013D
ENCODING 317
SWIDTH 360 0
DWIDTH 6 0
BBX 7 14 0 0
BITMAP
90
60
60
60
60
60
60
60
60
60
60
7E
7E
7C
ENDCHAR
STARTCHAR 013E
ENCODING 318
SWIDTH 360 0
DWIDTH 6 0
BBX 7 14 0 0
BITMAP
90
60
60
60
60
60
60
60
60
60
60
7E
7E
7C
ENDCHAR
STARTCHAR 0141
ENCODING 321
SWIDTH 480 0
DWIDTH 8 0
BBX 7 12 1 0
BITMAP
70
70
70
7C
7C
70
F0
F0
70
7E
7E
7C
ENDCHAR
STARTCHAR 0142
ENCODING 322
SWIDTH 480 0
DWIDTH 8 0
BBX 7 12 1 0
BITMAP
70
70
70
7C
7C
70
F0
F0
70
7E
7E
7C
ENDCHAR
STARTCHAR 0143
ENCODING 323
SWIDTH 540 0
DWIDTH 9 0
BBX 8 14 1 0
BITMAP
7E
60
47
E7
E7
F7
F7
FF
DF
DF
CF
CF
C7
C6
ENDCHAR
STARTCHAR 0144
ENCODING 324
SWIDTH 540 0
DWIDTH 9 0
BBX 8 14 1 0
BITMAP
7E
60
47
E7
E7
F7
F7
FF
DF
DF
CF
CF
C7
C6
ENDCHAR
STARTCHAR 0145
ENCODING 325
SWIDTH 540 0
DWIDTH 9 0
BBX 8 15 1 -3
BITMAP
47
E7
E7
F7
F7
FF
DF
DF
CF
CF
C7
C6
08
08
10
ENDCHAR
STARTCHAR 0146
ENCODING 326
SWIDTH 540 0
DWIDTH 9 0
BBX 8 15 1 -3
BITMAP
47
E7
E7
F7
F7
FF
DF
DF
CF
CF
C7
C6
08
08
10
ENDCHAR
STARTCHAR 0147
ENCODING 327
SWIDTH 540 0
DWIDTH 9 0
BBX 8 14 1 0
BITMAP
2C
18
47
E7
E7
F7
F7
FF
DF
DF
CF
CF
C7
C6
ENDCHAR
STARTCHAR 0148
ENCODING 328
SWIDTH 540 0
DWIDTH 9 0
BBX 8 14 1 0
BITMAP
2C
18
47
E7
E7
F7
F7
FF
DF
DF
CF
CF
C7
C6
ENDCHAR
STARTCHAR 014C
ENCODING 332
SWIDTH 600 0
DWIDTH 10 0
BBX 9 14 1 0
BITMAP
7E00
7E00
7E00
FF00
FF80
C380
C380
C380
C380
C380
C380
FF80
FF00
7F00
ENDCHAR
STARTCHAR 014D
ENCODING 333
SWIDTH 600 0
DWIDTH 10 0
BBX 9 14 1 0
BITMAP
7E00
7E00
7E00
FF00
FF80
C380
C380
C380
C380
C380
C380
FF80
FF00
7F00
ENDCHAR
STARTCHAR 0150
ENCODING 336
SWIDTH 600 0
DWIDTH 10 0
BBX 9 15 1 0
BITMAP
0C00
1400
1C00
7E00
FF00
FF80
C380
C380
C380
C380
C380
C380
FF80
FF00
7F00
ENDCHAR
STARTCHAR 0151
ENCODING 337
SWIDTH 600 0
DWIDTH 10 0
BBX 9 15 1 0
BITMAP
0C00
1400
1C00
7E00
FF00
FF80
C380
C380
C380
C380
C380
C380
FF80
FF00
7F00
ENDCHAR
STARTCHAR 0152
ENCODING 338
SWIDTH 840 0
DWIDTH 14 0
BBX 13 12 1 0
BITMAP
7FE0
FFF0
FFF8
C718
C700
C7E0
C7E0
C700
C700
FFF8
FFF0
7FF0
ENDCHAR
STARTCHAR 0153
ENCODING 339
SWIDTH 840 0
DWIDTH 14 0
BBX 13 12 1 0
BITMAP
7FE0
FFF0
FFF8
C718
C700
C7E0
C7E0
C700
C700
FFF8
FFF0
7FF0
ENDCHAR
STARTCHAR 0154
ENCODING 340
SWIDTH 540 0
DWIDTH 9 0
BBX 8 14 1 0
BITMAP
7E
40
FC
FE
FE
C6
C6
FE
FC
FC
CE
CE
C7
C7
ENDCHAR
STARTCHAR 0155
ENCODING 341
SWIDTH 540 0
DWIDTH 9 0
BBX 8 14 1 0
BITMAP
7E
40
FC
FE
FE
C6
C6
FE
FC
FC
CE
CE
C7
C7
ENDCHAR
STARTCHAR 0156
ENCODING 342
SWIDTH 540 0
DWIDTH 9 0
BBX 8 15 1 -3
BITMAP
FC
FE
FE
C6
C6
FE
FC
FC
CE
CE
C7
C7
10
10
10
ENDCHAR
STARTCHAR 0157
ENCODING 343
SWIDTH 540 0
DWIDTH 9 0
BBX 8 15 1 -3
BITMAP
FC
FE
FE
C6
C6
FE
FC
FC
CE
CE
C7
C7
10
10
10
ENDCHAR
STARTCHAR 0158
ENCODING 344
SWIDTH 540 0
DWIDTH 9 0
BBX 8 14 1 0
BITMAP
68
30
FC
FE
FE
C6
C6
FE
FC
FC
CE
CE
C7
C7
ENDCHAR
STARTCHAR 0159
ENCODING 345
SWIDTH 540 0
DWIDTH 9 0
BBX 8 14 1 0
BITMAP
68
30
FC
FE
FE
C6
C6
FE
FC
FC
CE
CE
C7
C7
ENDCHAR
STARTCHAR 015C
ENCODING 348
SWIDTH 540 0
DWIDTH 9 0
BBX 7 14 1 0
BITMAP
FC
86
FC
FE
FE
E6
F0
78
3C
1E
0E
FE
FE
7E
ENDCHAR
STARTCHAR 015D
ENCODING 349
SWIDTH 540 0
DWIDTH 9 0
BBX 7 14 1 0
BITMAP
FC
86
FC
FE
FE
E6
F0
78
3C
1E
0E
FE
FE
7E
ENDCHAR
STARTCHAR 015E
ENCODING 350
SWIDTH 540 0
DWIDTH 9 0
BBX 7 14 1 -2
BITMAP
FC
FE
FE
E6
F0
78
3C
1E
0E
FE
FE
7E
08
10
ENDCHAR
STARTCHAR 015F
ENCODING 351
SWIDTH 540 0
DWIDTH 9 0
BBX 7 14 1 -2
BITMAP
FC
FE
FE
E6
F0
78
3C
1E
0E
FE
FE
7E
08
10
ENDCHAR
STARTCHAR 0160
ENCODING 352
SWIDTH 540 0
DWIDTH 9 0
BBX 7 14 1 0
BITMAP
6C
38
FC
FE
FE
E6
F0
78
3C
1E
0E
FE
FE
7E
ENDCHAR
STARTCHAR 0161
ENCODING 353
SWIDTH 540 0
DWIDTH 9 0
BBX 7 14 1 0
BITMAP
6C
38
FC
FE
FE
E6
F0
78
3C
1E
0E
FE
FE
7E
ENDCHAR
STARTCHAR 0162
ENCODING 354
SWIDTH 480 0
DWIDTH 8 0
BBX 9 14 0 -2
BITMAP
7F00
FF00
FF80
DD80
1C00
1C00
1C00
1C00
1C00
1C00
1C00
1C00
0800
1800
ENDCHAR
STARTCHAR 0163
ENCODING 355
SWIDTH 480 0
DWIDTH 8 0
BBX 9 14 0 -2
BITMAP
7F00
FF00
FF80
DD80
1C00
1C00
1C00
1C00
1C00
1C00
1C00
1C00
0800
1800
ENDCHAR
STARTCHAR 0164
ENCODING 356
SWIDTH 480 0
DWIDTH 8 0
BBX 9 14 0 0
BITMAP
3600
1C00
7F00
FF00
FF80
DD80
1C00
1C00
1C00
1C00
1C00
1C00
1C00
1C00
ENDCHAR
STARTCHAR 0165
ENCODING 357
SWIDTH 480 0
DWIDTH 8 0
BBX 9 14 0 0
BITMAP
3600
1C00
7F00
FF00
FF80
DD80
1C00
1C00
1C00
1C00
1C00
1C00
1C00
1C00
ENDCHAR
STARTCHAR 0166
ENCODING 358
SWIDTH 480 0
DWIDTH 8 0
BBX 9 12 0 0
BITMAP
7F00
FF00
FF80
DD80
1C00
7F00
7F00
1C00
1C00
1C00
1C00
1C00
ENDCHAR
STARTCHAR 0167
ENCODING 359
SWIDTH 480 0
DWIDTH 8 0
BBX 9 12 0 0
BITMAP
7F00
FF00
FF80
DD80
1C00
7F00
7F00
1C00
1C00
1C00
1C00
1C00
ENDCHAR
STARTCHAR 0168
ENCODING 360
SWIDTH 600 0
DWIDTH 10 0
BBX 9 14 1 1
BITMAP
7F00
4400
C380
C380
C380
C380
C380
C380
C380
C380
C380
FF80
FF00
7F00
ENDCHAR
STARTCHAR 0169
ENCODING 361
SWIDTH 600 0
DWIDTH 10 0
BBX 9 14 1 1
BITMAP
7F00
4400
C380
C380
C380
C380
C380
C380
C380
C380
C380
FF80
FF00
7F00
ENDCHAR
STARTCHAR 016A
ENCODING 362
SWIDTH 600 0
DWIDTH 10 0
BBX 9 14 1 0
BITMAP
7E00
7E00
C380
C380
C380
C380
C380
C380
C380
C380
C380
FF80
FF00
7F00
ENDCHAR
STARTCHAR 016B
ENCODING 363
SWIDTH 600 0
DWIDTH 10 0
BBX 9 14 1 0
BITMAP
7E00
7E00
C380
C380
C380
C380
C380
C380
C380
C380
C380
FF80
FF00
7F00
ENDCHAR
STARTCHAR 016E
ENCODING 366
SWIDTH 600 0
DWIDTH 10 0
BBX 9 15 1 0
BITMAP
1800
1800
1800
C380
C380
C380
C380
C380
C380
C380
C380
C380
FF80
FF00
7F00
ENDCHAR
STARTCHAR 016F
ENCODING 367
SWIDTH 600 0
DWIDTH 10 0
BBX 9 15 1 0
BITMAP
1800
1800
1800
C380
C380
C380
C380
C380
C380
C380
C380
C380
FF80
FF00
7F00
ENDCHAR
STARTCHAR 0170
ENCODING 368
SWIDTH 600 0
DWIDTH 10 0
BBX 9 15 1 0
BITMAP
0C00
1400
1C00
C380
C380
C380
C380
C380
C380
C380
C380
C380
FF80
FF00
7F00
ENDCHAR
STARTCHAR 0171
ENCODING 369
SWIDTH 600 0
DWIDTH 10 0
BBX 9 15 1 0
BITMAP
0C00
1400
1C00
C380
C380
C380
C380
C380
C380
C380
C380
C380
FF80
FF00
7F00
ENDCHAR
STARTCHAR 0172
ENCODING 370
SWIDTH 600 0
DWIDTH 10 0
BBX 9 15 1 -3
BITMAP
C380
C380
C380
C380
C380
C380
C380
C380
C380
FF80
FF00
7F00
1000
1400
1800
ENDCHAR
STARTCHAR 0173
ENCODING 371
SWIDTH 600 0
DWIDTH 10 0
BBX 9 15 1 -3
BITMAP
C380
C380
C380
C380
C380
C380
C380
C380
C380
FF80
FF00
7F00
1000
1400
1800
ENDCHAR
STARTCHAR 0174
ENCODING 372
SWIDTH 840 0
DWIDTH 14 0
BBX 13 14 1 0
BITMAP
1F80
10C0
C038
C038
E038
E038
E730
6730
6D70
7DF0
7DF0
7DE0
39E0
38E0
ENDCHAR
STARTCHAR 0175
ENCODING 373
SWIDTH 840 0
DWIDTH 14 0
BBX 13 14 1 0
BITMAP
1F80
10C0
C038
C038
E038
E038
E730
6730
6D70
7DF0
7DF0
7DE0
39E0
38E0
ENDCHAR
STARTCHAR 0176
ENCODING 374
SWIDTH 420 0
DWIDTH 7 0
BBX 8 14 0 0
BITMAP
7E
42
C7
E7
E6
7E
7E
3C
3C
18
18
18
18
18
ENDCHAR
STARTCHAR 0177
ENCODING 375
SWIDTH 420 0
DWIDTH 7 0
BBX 8 14 0 0
BITMAP
7E
42
C7
E7
E6
7E
7E
3C
3C
18
18
18
18
18
ENDCHAR
STARTCHAR 0178
ENCODING 376
SWIDTH 420 0
DWIDTH 7 0
BBX 8 14 0 0
BITMAP
24
24
C7
E7
E6
7E
7E
3C
3C
18
18
18
18
18
ENDCHAR
STARTCHAR 017B
ENCODING 379
SWIDTH 540 0
DWIDTH 9 0
BBX 8 14 1 0
BITMAP
18
18
FE
FE
FF
0E
1C
3C
38
78
70
FE
FF
7F
ENDCHAR
STARTCHAR 017C
ENCODING 380
SWIDTH 540 0
DWIDTH 9 0
BBX 8 15 1 0
BITMAP
18
18
00
FE
FE
FF
0E
1C
3C
38
78
70
FE
FF
7F
ENDCHAR
STARTCHAR 017D
ENCODING 381
SWIDTH 540 0
DWIDTH 9 0
BBX 8 14 1 0
BITMAP
6C
18
FE
FE
FF
0E
1C
3C
38
78
70
FE
FF
7F
ENDCHAR
STARTCHAR 017E
ENCODING 382
SWIDTH 540 0
DWIDTH 9 0
BBX 8 14 1 0
BITMAP
2C
18
FE
FE
FF
0E
1C
3C
38
78
70
FE
FF
7F
ENDCHAR
STARTCHAR 01A0
ENCODING 416
SWIDTH 600 0
DWIDTH 10 0
BBX 9 13 1 0
BITMAP
0080
7F80
FF00
FF80
C380
C380
C380
C380
C380
C380
FF80
FF00
7F00
ENDCHAR
STARTCHAR 01A1
ENCODING 417
SWIDTH 600 0
DWIDTH 10 0
BBX 9 13 1 0
BITMAP
0080
7F80
FF00
FF80
C380
C380
C380
C380
C380
C380
FF80
FF00
7F00
ENDCHAR
STARTCHAR 01AF
ENCODING 431
SWIDTH 600 0
DWIDTH 10 0
BBX 9 13 1 0
BITMAP
0080
C380
C300
C380
C380
C380
C380
C380
C380
C380
FF80
FF00
7F00
ENDCHAR
STARTCHAR 01B0
ENCODING 432
SWIDTH 600 0
DWIDTH 10 0
BBX 9 13 1 0
BITMAP
0080
C380
C300
C380
C380
C380
C380
C380
C380
C380
FF80
FF00
7F00
ENDCHAR
STARTCHAR 0218
ENCODING 536
SWIDTH 540 0
DWIDTH 9 0
BBX 7 15 1 -3
BITMAP
FC
FE
FE
E6
F0
78
3C
1E
0E
FE
FE
7E
10
10
10
ENDCHAR
STARTCHAR 0219
ENCODING 537
SWIDTH 540 0
DWIDTH 9 0
BBX 7 15 1 -3
BITMAP
FC
FE
FE
E6
F0
78
3C
1E
0E
FE
FE
7E
10
10
10
ENDCHAR
STARTCHAR 021A
ENCODING 538
SWIDTH 480 0
DWIDTH 8 0
BBX 9 15 0 -3
BITMAP
7F00
FF00
FF80
DD80
1C00
1C00
1C00
1C00
1C00
1C00
1C00
1C00
0800
0800
1000
ENDCHAR
STARTCHAR 021B
ENCODING 539
SWIDTH 480 0
DWIDTH 8 0
BBX 9 15 0 -3
BITMAP
7F00
FF00
FF80
DD80
1C00
1C00
1C00
1C00
1C00
1C00
1C00
1C00
0800
0800
1000
ENDCHAR
STARTCHAR 0259
ENCODING 601
SWIDTH 540 0
DWIDTH 9 0
BBX 8 12 1 0
BITMAP
7F
FF
FF
C7
07
F7
F7
F7
C7
FF
FF
FF
ENDCHAR
STARTCHAR 02C6
ENCODING 710
SWIDTH 420 0
DWIDTH 7 0
BBX 7 2 0 12
BITMAP
7E
C2
ENDCHAR
STARTCHAR 02C7
ENCODING 711
SWIDTH 300 0
DWIDTH 5 0
BBX 5 2 0 12
BITMAP
D8
70
ENDCHAR
STARTCHAR 02D8
ENCODING 728
SWIDTH 420 0
DWIDTH 7 0
BBX 7 2 0 12
BITMAP
FE
7C
ENDCHAR
STARTCHAR 02D9
ENCODING 729
SWIDTH 120 0
DWIDTH 2 0
BBX 2 2 0 13
BITMAP
C0
C0
ENDCHAR
STARTCHAR 02DA
ENCODING 730
SWIDTH 180 0
DWIDTH 3 0
BBX 3 3 0 12
BITMAP
60
A0
60
ENDCHAR
STARTCHAR 02DB
ENCODING 731
SWIDTH 180 0
DWIDTH 3 0
BBX 3 3 0 -3
BITMAP
40
E0
60
ENDCHAR
STARTCHAR 02DC
ENCODING 732
SWIDTH 420 0
DWIDTH 7 0
BBX 7 3 0 12
BITMAP
20
FE
84
ENDCHAR
STARTCHAR 02DD
ENCODING 733
SWIDTH 240 0
DWIDTH 4 0
BBX 4 3 0 12
BITMAP
50
50
A0
ENDCHAR
STARTCHAR 1E20
ENCODING 7712
SWIDTH 540 0
DWIDTH 9 0
BBX 8 14 1 0
BITMAP
FE
FE
FC
FE
FF
C7
C0
CF
CF
CF
C7
FF
FF
FF
ENDCHAR
STARTCHAR 1E3E
ENCODING 7742
SWIDTH 660 0
DWIDTH 11 0
BBX 10 14 1 0
BITMAP
3F00
3000
7380
F380
F7C0
F7C0
D7C0
DFC0
DFC0
DDC0
DDC0
C1C0
C1C0
C1C0
ENDCHAR
STARTCHAR 1E3F
ENCODING 7743
SWIDTH 660 0
DWIDTH 11 0
BBX 10 14 1 0
BITMAP
3F00
3000
7380
F380
F7C0
F7C0
D7C0
DFC0
DFC0
DDC0
DDC0
C1C0
C1C0
C1C0
ENDCHAR
STARTCHAR 1E44
ENCODING 7748
SWIDTH 540 0
DWIDTH 9 0
BBX 8 14 1 0
BITMAP
18
18
47
E7
E7
F7
F7
FF
DF
DF
CF
CF
C7
C6
ENDCHAR
STARTCHAR 1E45
ENCODING 7749
SWIDTH 540 0
DWIDTH 9 0
BBX 8 14 1 0
BITMAP
18
18
47
E7
E7
F7
F7
FF
DF
DF
CF
CF
C7
C6
ENDCHAR
STARTCHAR 1E80
ENCODING 7808
SWIDTH 840 0
DWIDTH 14 0
BBX 13 14 1 0
BITMAP
1E00
0180
C038
C038
E038
E038
E730
6730
6D70
7DF0
7DF0
7DE0
39E0
38E0
ENDCHAR
STARTCHAR 1E81
ENCODING 7809
SWIDTH 840 0
DWIDTH 14 0
BBX 13 14 1 0
BITMAP
1E00
0180
C038
C038
E038
E038
E730
6730
6D70
7DF0
7DF0
7DE0
39E0
38E0
ENDCHAR
STARTCHAR 1E82
ENCODING 7810
SWIDTH 840 0
DWIDTH 14 0
BBX 13 14 1 0
BITMAP
0F80
1800
C038
C038
E038
E038
E730
6730
6D70
7DF0
7DF0
7DE0
39E0
38E0
ENDCHAR
STARTCHAR 1E83
ENCODING 7811
SWIDTH 840 0
DWIDTH 14 0
BBX 13 14 1 0
BITMAP
0F80
1800
C038
C038
E038
E038
E730
6730
6D70
7DF0
7DF0
7DE0
39E0
38E0
ENDCHAR
STARTCHAR 1E84
ENCODING 7812
SWIDTH 840 0
DWIDTH 14 0
BBX 13 14 1 0
BITMAP
0D00
0D00
C038
C038
E038
E038
E730
6730
6D70
7DF0
7DF0
7DE0
39E0
38E0
ENDCHAR
STARTCHAR 1E85
ENCODING 7813
SWIDTH 840 0
DWIDTH 14 0
BBX 13 14 1 0
BITMAP
0D00
0D00
C038
C038
E038
E038
E730
6730
6D70
7DF0
7DF0
7DE0
39E0
38E0
ENDCHAR
STARTCHAR 1EA0
ENCODING 7840
SWIDTH 540 0
DWIDTH 9 0
BBX 10 14 0 -2
BITMAP
1E00
3F00
3F00
3300
3300
7300
7380
7380
7F80
6D80
E180
E1C0
0000
0C00
ENDCHAR
STARTCHAR 1EA1
ENCODING 7841
SWIDTH 540 0
DWIDTH 9 0
BBX 10 14 0 -2
BITMAP
1E00
3F00
3F00
3300
3300
7300
7380
7380
7F80
6D80
E180
E1C0
0000
0C00
ENDCHAR
STARTCHAR 1EA2
ENCODING 7842
SWIDTH 540 0
DWIDTH 9 0
BBX 10 15 0 0
BITMAP
1C00
0400
0400
1E00
3F00
3F00
3300
3300
7300
7380
7380
7F80
6D80
E180
E1C0
ENDCHAR
STARTCHAR 1EA3
ENCODING 7843
SWIDTH 540 0
DWIDTH 9 0
BBX 10 15 0 0
BITMAP
1C00
0400
0400
1E00
3F00
3F00
3300
3300
7300
7380
7380
7F80
6D80
E180
E1C0
ENDCHAR
STARTCHAR 1EA4
ENCODING 7844
SWIDTH 540 0
DWIDTH 9 0
BBX 10 17 0 0
BITMAP
0F00
3800
0000
3F00
6100
1E00
3F00
3F00
3300
3300
7300
7380
7380
7F80
6D80
E180
E1C0
ENDCHAR
STARTCHAR 1EA5
ENCODING 7845
SWIDTH 540 0
DWIDTH 9 0
BBX 10 17 0 0
BITMAP
0F00
3800
0000
3F00
6100
1E00
3F00
3F00
3300
3300
7300
7380
7380
7F80
6D80
E180
E1C0
ENDCHAR
STARTCHAR 1EA6
ENCODING 7846
SWIDTH 540 0
DWIDTH 9 0
BBX 10 17 0 0
BITMAP
3000
3F00
0000
3F00
6100
1E00
3F00
3F00
3300
3300
7300
7380
7380
7F80
6D80
E180
E1C0
ENDCHAR
STARTCHAR 1EA7
ENCODING 7847
SWIDTH 540 0
DWIDTH 9 0
BBX 10 17 0 0
BITMAP
3000
3F00
0000
3F00
6100
1E00
3F00
3F00
3300
3300
7300
7380
7380
7F80
6D80
E180
E1C0
ENDCHAR
STARTCHAR 1EA8
ENCODING 7848
SWIDTH 540 0
DWIDTH 9 0
BBX 10 18 0 0
BITMAP
0C00
1400
0400
0000
3F00
6100
1E00
3F00
3F00
3300
3300
7300
7380
7380
7F80
6D80
E180
E1C0
ENDCHAR
STARTCHAR 1EA9
ENCODING 7849
SWIDTH 540 0
DWIDTH 9 0
BBX 10 18 0 0
BITMAP
0C00
1400
0400
0000
3F00
6100
1E00
3F00
3F00
3300
3300
7300
7380
7380
7F80
6D80
E180
E1C0
ENDCHAR
STARTCHAR 1EAA
ENCODING 7850
SWIDTH 540 0
DWIDTH 9 0
BBX 10 17 0 0
BITMAP
3D00
6700
0000
3F00
6100
1E00
3F00
3F00
3300
3300
7300
7380
7380
7F80
6D80
E180
E1C0
ENDCHAR
STARTCHAR 1EAB
ENCODING 7851
SWIDTH 540 0
DWIDTH 9 0
BBX 10 17 0 0
BITMAP
3D00
6700
0000
3F00
6100
1E00
3F00
3F00
3300
3300
7300
7380
7380
7F80
6D80
E180
E1C0
ENDCHAR
STARTCHAR 1EAC
ENCODING 7852
SWIDTH 540 0
DWIDTH 9 0
BBX 10 16 0 -2
BITMAP
3F00
6100
1E00
3F00
3F00
3300
3300
7300
7380
7380
7F80
6D80
E180
E1C0
0000
0C00
ENDCHAR
STARTCHAR 1EAD
ENCODING 7853
SWIDTH 540 0
DWIDTH 9 0
BBX 10 16 0 -2
BITMAP
3F00
6100
1E00
3F00
3F00
3300
3300
7300
7380
7380
7F80
6D80
E180
E1C0
0000
0C00
ENDCHAR
STARTCHAR 1EAE
ENCODING 7854
SWIDTH 540 0
DWIDTH 9 0
BBX 10 17 0 0
BITMAP
0F00
3800
0000
7F00
3E00
1E00
3F00
3F00
3300
3300
7300
7380
7380
7F80
6D80
E180
E1C0
ENDCHAR
STARTCHAR 1EAF
ENCODING 7855
SWIDTH 540 0
DWIDTH 9 0
BBX 10 17 0 0
BITMAP
0F00
3800
0000
7F00
3E00
1E00
3F00
3F00
3300
3300
7300
7380
7380
7F80
6D80
E180
E1C0
ENDCHAR
STARTCHAR 1EB0
ENCODING 7856
SWIDTH 540 0
DWIDTH 9 0
BBX 10 17 0 0
BITMAP
3000
3F00
0000
7F00
3E00
1E00
3F00
3F00
3300
3300
7300
7380
7380
7F80
6D80
E180
E1C0
ENDCHAR
STARTCHAR 1EB1
ENCODING 7857
SWIDTH 540 0
DWIDTH 9 0
BBX 10 17 0 0
BITMAP
3000
3F00
0000
7F00
3E00
1E00
3F00
3F00
3300
3300
7300
7380
7380
7F80
6D80
E180
E1C0
ENDCHAR
STARTCHAR 1EB2
ENCODING 7858
SWIDTH 540 0
DWIDTH 9 0
BBX 10 17 0 0
BITMAP
1C00
0400
0400
7F00
3E00
1E00
3F00
3F00
3300
3300
7300
7380
7380
7F80
6D80
E180
E1C0
ENDCHAR
STARTCHAR 1EB3
ENCODING 7859
SWIDTH 540 0
DWIDTH 9 0
BBX 10 17 0 0
BITMAP
1C00
0400
0400
7F00
3E00
1E00
3F00
3F00
3300
3300
7300
7380
7380
7F80
6D80
E180
E1C0
ENDCHAR
STARTCHAR 1EB4
ENCODING 7860
SWIDTH 540 0
DWIDTH 9 0
BBX 10 17 0 0
BITMAP
3D00
6700
0000
7F00
3E00
1E00
3F00
3F00
3300
3300
7300
7380
7380
7F80
6D80
E180
E1C0
ENDCHAR
STARTCHAR 1EB5
ENCODING 7861
SWIDTH 540 0
DWIDTH 9 0
BBX 10 17 0 0
BITMAP
3D00
6700
0000
7F00
3E00
1E00
3F00
3F00
3300
3300
7300
7380
7380
7F80
6D80
E180
E1C0
ENDCHAR
STARTCHAR 1EB6
ENCODING 7862
SWIDTH 540 0
DWIDTH 9 0
BBX 10 16 0 -2
BITMAP
7F00
3E00
1E00
3F00
3F00
3300
3300
7300
7380
7380
7F80
6D80
E180
E1C0
0000
0C00
ENDCHAR
STARTCHAR 1EB7
ENCODING 7863
SWIDTH 540 0
DWIDTH 9 0
BBX 10 16 0 -2
BITMAP
7F00
3E00
1E00
3F00
3F00
3300
3300
7300
7380
7380
7F80
6D80
E180
E1C0
0000
0C00
ENDCHAR
STARTCHAR 1EB8
ENCODING 7864
SWIDTH 540 0
DWIDTH 9 0
BBX 7 14 1 -2
BITMAP
FC
FE
FE
C6
C0
F8
F8
C0
C0
FE
FE
FC
00
38
ENDCHAR
STARTCHAR 1EB9
ENCODING 7865
SWIDTH 540 0
DWIDTH 9 0
BBX 7 14 1 -2
BITMAP
FC
FE
FE
C6
C0
F8
F8
C0
C0
FE
FE
FC
00
38
ENDCHAR
STARTCHAR 1EBA
ENCODING 7866
SWIDTH 540 0
DWIDTH 9 0
BBX 7 15 1 0
BITMAP
38
10
10
FC
FE
FE
C6
C0
F8
F8
C0
C0
FE
FE
FC
ENDCHAR
STARTCHAR 1EBB
ENCODING 7867
SWIDTH 540 0
DWIDTH 9 0
BBX 7 15 1 0
BITMAP
38
10
10
FC
FE
FE
C6
C0
F8
F8
C0
C0
FE
FE
FC
ENDCHAR
STARTCHAR 1EBC
ENCODING 7868
SWIDTH 540 0
DWIDTH 9 0
BBX 7 14 1 1
BITMAP
FC
88
FC
FE
FE
C6
C0
F8
F8
C0
C0
FE
FE
FC
ENDCHAR
STARTCHAR 1EBD
ENCODING 7869
SWIDTH 540 0
DWIDTH 9 0
BBX 7 14 1 1
BITMAP
FC
88
FC
FE
FE
C6
C0
F8
F8
C0
C0
FE
FE
FC
ENDCHAR
STARTCHAR 1EBE
ENCODING 7870
SWIDTH 540 0
DWIDTH 9 0
BBX 7 17 1 0
BITMAP
1C
F0
00
FC
84
FC
FE
FE
C6
C0
F8
F8
C0
C0
FE
FE
FC
ENDCHAR
STARTCHAR 1EBF
ENCODING 7871
SWIDTH 540 0
DWIDTH 9 0
BBX 7 17 1 0
BITMAP
1C
F0
00
FC
84
FC
FE
FE
C6
C0
F8
F8
C0
C0
FE
FE
FC
ENDCHAR
STARTCHAR 1EC0
ENCODING 7872
SWIDTH 540 0
DWIDTH 9 0
BBX 7 17 1 0
BITMAP
E0
7C
00
FC
84
FC
FE
FE
C6
C0
F8
F8
C0
C0
FE
FE
FC
ENDCHAR
STARTCHAR 1EC1
ENCODING 7873
SWIDTH 540 0
DWIDTH 9 0
BBX 7 17 1 0
BITMAP
E0
7C
00
FC
84
FC
FE
FE
C6
C0
F8
F8
C0
C0
FE
FE
FC
ENDCHAR
STARTCHAR 1EC2
ENCODING 7874
SWIDTH 540 0
DWIDTH 9 0
BBX 7 18 1 0
BITMAP
30
38
10
00
FC
84
FC
FE
FE
C6
C0
F8
F8
C0
C0
FE
FE
FC
ENDCHAR
STARTCHAR 1EC3
ENCODING 7875
SWIDTH 540 0
DWIDTH 9 0
BBX 7 18 1 0
BITMAP
30
38
10
00
FC
84
FC
FE
FE
C6
C0
F8
F8
C0
C0
FE
FE
FC
ENDCHAR
STARTCHAR 1EC4
ENCODING 7876
SWIDTH 540 0
DWIDTH 9 0
BBX 7 17 1 0
BITMAP
F4
8C
00
FC
84
FC
FE
FE
C6
C0
F8
F8
C0
C0
FE
FE
FC
ENDCHAR
STARTCHAR 1EC5
ENCODING 7877
SWIDTH 540 0
DWIDTH 9 0
BBX 7 17 1 0
BITMAP
F4
8C
00
FC
84
FC
FE
FE
C6
C0
F8
F8
C0
C0
FE
FE
FC
ENDCHAR
STARTCHAR 1EC6
ENCODING 7878
SWIDTH 540 0
DWIDTH 9 0
BBX 7 16 1 -2
BITMAP
FC
84
FC
FE
FE
C6
C0
F8
F8
C0
C0
FE
FE
FC
00
38
ENDCHAR
STARTCHAR 1EC7
ENCODING 7879
SWIDTH 540 0
DWIDTH 9 0
BBX 7 16 1 -2
BITMAP
FC
84
FC
FE
FE
C6
C0
F8
F8
C0
C0
FE
FE
FC
00
38
ENDCHAR
STARTCHAR 1EC8
ENCODING 7880
SWIDTH 180 0
DWIDTH 3 0
BBX 3 15 0 0
BITMAP
E0
20
20
60
60
60
60
60
60
60
60
60
60
60
60
ENDCHAR
STARTCHAR 1EC9
ENCODING 7881
SWIDTH 180 0
DWIDTH 3 0
BBX 3 15 0 0
BITMAP
E0
20
20
60
60
60
60
60
60
60
60
60
60
60
60
ENDCHAR
STARTCHAR 1ECA
ENCODING 7882
SWIDTH 180 0
DWIDTH 3 0
BBX 2 14 1 -2
BITMAP
C0
C0
C0
C0
C0
C0
C0
C0
C0
C0
C0
C0
00
C0
ENDCHAR
STARTCHAR 1ECB
ENCODING 7883
SWIDTH 180 0
DWIDTH 3 0
BBX 2 14 1 -2
BITMAP
C0
C0
C0
C0
C0
C0
C0
C0
C0
C0
C0
C0
00
C0
ENDCHAR
STARTCHAR 1ECC
ENCODING 7884
SWIDTH 600 0
DWIDTH 10 0
BBX 9 14 1 -2
BITMAP
7E00
FF00
FF80
C380
C380
C380
C380
C380
C380
FF80
FF00
7F00
0000
1C00
ENDCHAR
STARTCHAR 1ECD
ENCODING 7885
SWIDTH 600 0
DWIDTH 10 0
BBX 9 14 1 -2
BITMAP
7E00
FF00
FF80
C380
C380
C380
C380
C380
C380
FF80
FF00
7F00
0000
1C00
ENDCHAR
STARTCHAR 1ECE
ENCODING 7886
SWIDTH 600 0
DWIDTH 10 0
BBX 9 15 1 0
BITMAP
1C00
0800
0800
7E00
FF00
FF80
C380
C380
C380
C380
C380
C380
FF80
FF00
7F00
ENDCHAR
STARTCHAR 1ECF
ENCODING 7887
SWIDTH 600 0
DWIDTH 10 0
BBX 9 15 1 0
BITMAP
1C00
0800
0800
7E00
FF00
FF80
C380
C380
C380
C380
C380
C380
FF80
FF00
7F00
ENDCHAR
STARTCHAR 1ED0
ENCODING 7888
SWIDTH 600 0
DWIDTH 10 0
BBX 9 17 1 0
BITMAP
0E00
7800
0000
7E00
4300
7E00
FF00
FF80
C380
C380
C380
C380
C380
C380
FF80
FF00
7F00
ENDCHAR
STARTCHAR 1ED1
ENCODING 7889
SWIDTH 600 0
DWIDTH 10 0
BBX 9 17 1 0
BITMAP
0E00
7800
0000
7E00
4300
7E00
FF00
FF80
C380
C380
C380
C380
C380
C380
FF80
FF00
7F00
ENDCHAR
STARTCHAR 1ED2
ENCODING 7890
SWIDTH 600 0
DWIDTH 10 0
BBX 9 17 1 0
BITMAP
7000
3E00
0000
7E00
4300
7E00
FF00
FF80
C380
C380
C380
C380
C380
C380
FF80
FF00
7F00
ENDCHAR
STARTCHAR 1ED3
ENCODING 7891
SWIDTH 600 0
DWIDTH 10 0
BBX 9 17 1 0
BITMAP
7000
3E00
0000
7E00
4300
7E00
FF00
FF80
C380
C380
C380
C380
C380
C380
FF80
FF00
7F00
ENDCHAR
STARTCHAR 1ED4
ENCODING 7892
SWIDTH 600 0
DWIDTH 10 0
BBX 9 18 1 0
BITMAP
1C00
1400
0800
0000
7E00
4300
7E00
FF00
FF80
C380
C380
C380
C380
C380
C380
FF80
FF00
7F00
ENDCHAR
STARTCHAR 1ED5
ENCODING 7893
SWIDTH 600 0
DWIDTH 10 0
BBX 9 18 1 0
BITMAP
1C00
1400
0800
0000
7E00
4300
7E00
FF00
FF80
C380
C380
C380
C380
C380
C380
FF80
FF00
7F00
ENDCHAR
STARTCHAR 1ED6
ENCODING 7894
SWIDTH 600 0
DWIDTH 10 0
BBX 9 17 1 0
BITMAP
7B00
4600
0000
7E00
4300
7E00
FF00
FF80
C380
C380
C380
C380
C380
C380
FF80
FF00
7F00
ENDCHAR
STARTCHAR 1ED7
ENCODING 7895
SWIDTH 600 0
DWIDTH 10 0
BBX 9 17 1 0
BITMAP
7B00
4600
0000
7E00
4300
7E00
FF00
FF80
C380
C380
C380
C380
C380
C380
FF80
FF00
7F00
ENDCHAR
STARTCHAR 1ED8
ENCODING 7896
SWIDTH 600 0
DWIDTH 10 0
BBX 9 16 1 -2
BITMAP
7E00
4300
7E00
FF00
FF80
C380
C380
C380
C380
C380
C380
FF80
FF00
7F00
0000
1C00
ENDCHAR
STARTCHAR 1ED9
ENCODING 7897
SWIDTH 600 0
DWIDTH 10 0
BBX 9 16 1 -2
BITMAP
7E00
4300
7E00
FF00
FF80
C380
C380
C380
C380
C380
C380
FF80
FF00
7F00
0000
1C00
ENDCHAR
STARTCHAR 1EDA
ENCODING 7898
SWIDTH 600 0
DWIDTH 10 0
BBX 9 14 1 0
BITMAP
3E00
6080
7F80
FF00
FF80
C380
C380
C380
C380
C380
C380
FF80
FF00
7F00
ENDCHAR
STARTCHAR 1EDB
ENCODING 7899
SWIDTH 600 0
DWIDTH 10 0
BBX 9 14 1 0
BITMAP
3E00
6080
7F80
FF00
FF80
C380
C380
C380
C380
C380
C380
FF80
FF00
7F00
ENDCHAR
STARTCHAR 1EDC
ENCODING 7900
SWIDTH 600 0
DWIDTH 10 0
BBX 9 14 1 0
BITMAP
7800
0E80
7F80
FF00
FF80
C380
C380
C380
C380
C380
C380
FF80
FF00
7F00
ENDCHAR
STARTCHAR 1EDD
ENCODING 7901
SWIDTH 600 0
DWIDTH 10 0
BBX 9 14 1 0
BITMAP
7800
0E80
7F80
FF00
FF80
C380
C380
C380
C380
C380
C380
FF80
FF00
7F00
ENDCHAR
STARTCHAR 1EDE
ENCODING 7902
SWIDTH 600 0
DWIDTH 10 0
BBX 9 15 1 0
BITMAP
1C00
0800
0880
7F80
FF00
FF80
C380
C380
C380
C380
C380
C380
FF80
FF00
7F00
ENDCHAR
STARTCHAR 1EDF
ENCODING 7903
SWIDTH 600 0
DWIDTH 10 0
BBX 9 15 1 0
BITMAP
1C00
0800
0880
7F80
FF00
FF80
C380
C380
C380
C380
C380
C380
FF80
FF00
7F00
ENDCHAR
STARTCHAR 1EE0
ENCODING 7904
SWIDTH 600 0
DWIDTH 10 0
BBX 9 15 1 0
BITMAP
7B00
4600
0080
7F80
FF00
FF80
C380
C380
C380
C380
C380
C380
FF80
FF00
7F00
ENDCHAR
STARTCHAR 1EE1
ENCODING 7905
SWIDTH 600 0
DWIDTH 10 0
BBX 9 15 1 0
BITMAP
7B00
4600
0080
7F80
FF00
FF80
C380
C380
C380
C380
C380
C380
FF80
FF00
7F00
ENDCHAR
STARTCHAR 1EE2
ENCODING 7906
SWIDTH 600 0
DWIDTH 10 0
BBX 9 15 1 -2
BITMAP
0080
7F80
FF00
FF80
C380
C380
C380
C380
C380
C380
FF80
FF00
7F00
0000
1C00
ENDCHAR
STARTCHAR 1EE3
ENCODING 7907
SWIDTH 600 0
DWIDTH 10 0
BBX 9 15 1 -2
BITMAP
0080
7F80
FF00
FF80
C380
C380
C380
C380
C380
C380
FF80
FF00
7F00
0000
1C00
ENDCHAR
STARTCHAR 1EE4
ENCODING 7908
SWIDTH 600 0
DWIDTH 10 0
BBX 9 14 1 -2
BITMAP
C380
C380
C380
C380
C380
C380
C380
C380
C380
FF80
FF00
7F00
0000
1C00
ENDCHAR
STARTCHAR 1EE5
ENCODING 7909
SWIDTH 600 0
DWIDTH 10 0
BBX 9 14 1 -2
BITMAP
C380
C380
C380
C380
C380
C380
C380
C380
C380
FF80
FF00
7F00
0000
1C00
ENDCHAR
STARTCHAR 1EE6
ENCODING 7910
SWIDTH 600 0
DWIDTH 10 0
BBX 9 15 1 0
BITMAP
1C00
0800
0800
C380
C380
C380
C380
C380
C380
C380
C380
C380
FF80
FF00
7F00
ENDCHAR
STARTCHAR 1EE7
ENCODING 7911
SWIDTH 600 0
DWIDTH 10 0
BBX 9 15 1 0
BITMAP
1C00
0800
0800
C380
C380
C380
C380
C380
C380
C380
C380
C380
FF80
FF00
7F00
ENDCHAR
STARTCHAR 1EE8
ENCODING 7912
SWIDTH 600 0
DWIDTH 10 0
BBX 9 14 1 0
BITMAP
3E00
6080
C380
C300
C380
C380
C380
C380
C380
C380
C380
FF80
FF00
7F00
ENDCHAR
STARTCHAR 1EE9
ENCODING 7913
SWIDTH 600 0
DWIDTH 10 0
BBX 9 14 1 0
BITMAP
3E00
6080
C380
C300
C380
C380
C380
C380
C380
C380
C380
FF80
FF00
7F00
ENDCHAR
STARTCHAR 1EEA
ENCODING 7914
SWIDTH 600 0
DWIDTH 10 0
BBX 9 14 1 0
BITMAP
7800
0E80
C380
C300
C380
C380
C380
C380
C380
C380
C380
FF80
FF00
7F00
ENDCHAR
STARTCHAR 1EEB
ENCODING 7915
SWIDTH 600 0
DWIDTH 10 0
BBX 9 14 1 0
BITMAP
7800
0E80
C380
C300
C380
C380
C380
C380
C380
C380
C380
FF80
FF00
7F00
ENDCHAR
STARTCHAR 1EEC
ENCODING 7916
SWIDTH 600 0
DWIDTH 10 0
BBX 9 15 1 0
BITMAP
1C00
0800
0880
C380
C300
C380
C380
C380
C380
C380
C380
C380
FF80
FF00
7F00
ENDCHAR
STARTCHAR 1EED
ENCODING 7917
SWIDTH 600 0
DWIDTH 10 0
BBX 9 15 1 0
BITMAP
1C00
0800
0880
C380
C300
C380
C380
C380
C380
C380
C380
C380
FF80
FF00
7F00
ENDCHAR
STARTCHAR 1EEE
ENCODING 7918
SWIDTH 600 0
DWIDTH 10 0
BBX 9 15 1 0
BITMAP
7B00
4600
0080
C380
C300
C380
C380
C380
C380
C380
C380
C380
FF80
FF00
7F00
ENDCHAR
STARTCHAR 1EEF
ENCODING 7919
SWIDTH 600 0
DWIDTH 10 0
BBX 9 15 1 0
BITMAP
7B00
4600
0080
C380
C300
C380
C380
C380
C380
C380
C380
C380
FF80
FF00
7F00
ENDCHAR
STARTCHAR 1EF0
ENCODING 7920
SWIDTH 600 0
DWIDTH 10 0
BBX 9 15 1 -2
BITMAP
0080
C380
C300
C380
C380
C380
C380
C380
C380
C380
FF80
FF00
7F00
0000
1C00
ENDCHAR
STARTCHAR 1EF1
ENCODING 7921
SWIDTH 600 0
DWIDTH 10 0
BBX 9 15 1 -2
BITMAP
0080
C380
C300
C380
C380
C380
C380
C380
C380
C380
FF80
FF00
7F00
0000
1C00
ENDCHAR
STARTCHAR 1EF2
ENCODING 7922
SWIDTH 420 0
DWIDTH 7 0
BBX 8 14 0 0
BITMAP
78
0E
C7
E7
E6
7E
7E
3C
3C
18
18
18
18
18
ENDCHAR
STARTCHAR 1EF3
ENCODING 7923
SWIDTH 420 0
DWIDTH 7 0
BBX 8 14 0 0
BITMAP
78
0E
C7
E7
E6
7E
7E
3C
3C
18
18
18
18
18
ENDCHAR
STARTCHAR 1EF4
ENCODING 7924
SWIDTH 420 0
DWIDTH 7 0
BBX 8 14 0 -2
BITMAP
C7
E7
E6
7E
7E
3C
3C
18
18
18
18
18
00
18
ENDCHAR
STARTCHAR 1EF5
ENCODING 7925
SWIDTH 420 0
DWIDTH 7 0
BBX 8 14 0 -2
BITMAP
C7
E7
E6
7E
7E
3C
3C
18
18
18
18
18
00
18
ENDCHAR
STARTCHAR 1EF6
ENCODING 7926
SWIDTH 420 0
DWIDTH 7 0
BBX 8 15 0 0
BITMAP
38
08
08
C7
E7
E6
7E
7E
3C
3C
18
18
18
18
18
ENDCHAR
STARTCHAR 1EF7
ENCODING 7927
SWIDTH 420 0
DWIDTH 7 0
BBX 8 15 0 0
BITMAP
38
08
08
C7
E7
E6
7E
7E
3C
3C
18
18
18
18
18
ENDCHAR
STARTCHAR 1EF8
ENCODING 7928
SWIDTH 420 0
DWIDTH 7 0
BBX 8 15 0 0
BITMAP
30
5E
00
C7
E7
E6
7E
7E
3C
3C
18
18
18
18
18
ENDCHAR
STARTCHAR 1EF9
ENCODING 7929
SWIDTH 420 0
DWIDTH 7 0
BBX 8 15 0 0
BITMAP
30
5E
00
C7
E7
E6
7E
7E
3C
3C
18
18
18
18
18
ENDCHAR
STARTCHAR 2013
ENCODING 8211
SWIDTH 480 0
DWIDTH 8 0
BBX 8 1 0 5
BITMAP
FF
ENDCHAR
STARTCHAR 2014
ENCODING 8212
SWIDTH 960 0
DWIDTH 16 0
BBX 16 1 0 5
BITMAP
FFFF
ENDCHAR
STARTCHAR 2018
ENCODING 8216
SWIDTH 180 0
DWIDTH 3 0
BBX 3 4 0 8
BITMAP
60
60
C0
C0
ENDCHAR
STARTCHAR 2019
ENCODING 8217
SWIDTH 180 0
DWIDTH 3 0
BBX 2 4 1 8
BITMAP
C0
C0
C0
80
ENDCHAR
STARTCHAR 201A
ENCODING 8218
SWIDTH 120 0
DWIDTH 2 0
BBX 3 4 -1 -2
BITMAP
20
20
60
C0
ENDCHAR
STARTCHAR 201C
ENCODING 8220
SWIDTH 360 0
DWIDTH 6 0
BBX 6 4 0 8
BITMAP
6C
78
D8
D8
ENDCHAR
STARTCHAR 201D
ENCODING 8221
SWIDTH 360 0
DWIDTH 6 0
BBX 5 4 1 8
BITMAP
D8
D8
D8
B0
ENDCHAR
STARTCHAR 201E
ENCODING 8222
SWIDTH 360 0
DWIDTH 6 0
BBX 6 4 0 -2
BITMAP
6C
6C
68
D8
ENDCHAR
STARTCHAR 2020
ENCODING 8224
SWIDTH 480 0
DWIDTH 8 0
BBX 8 12 0 0
BITMAP
08
08
08
08
FF
08
08
08
08
08
08
08
ENDCHAR
STARTCHAR 2021
ENCODING 8225
SWIDTH 480 0
DWIDTH 8 0
BBX 8 12 0 0
BITMAP
08
08
08
08
FF
08
08
FF
FF
08
08
08
ENDCHAR
STARTCHAR 2022
ENCODING 8226
SWIDTH 180 0
DWIDTH 3 0
BBX 4 3 0 5
BITMAP
F0
F0
F0
ENDCHAR
STARTCHAR 2026
ENCODING 8230
SWIDTH 480 0
DWIDTH 8 0
BBX 8 2 0 0
BITMAP
DB
DB
ENDCHAR
STARTCHAR 2030
ENCODING 8240
SWIDTH 840 0
DWIDTH 14 0
BBX 13 12 1 0
BITMAP
E300
F600
B600
FC00
0C00
0800
1800
1000
3778
25E8
65E8
67F8
ENDCHAR
STARTCHAR 2039
ENCODING 8249
SWIDTH 240 0
DWIDTH 4 0
BBX 4 7 0 2
BITMAP
10
30
60
C0
60
30
10
ENDCHAR
STARTCHAR 203A
ENCODING 8250
SWIDTH 240 0
DWIDTH 4 0
BBX 4 7 0 2
BITMAP
80
C0
60
30
30
C0
80
ENDCHAR
STARTCHAR 2044
ENCODING 8260
SWIDTH 300 0
DWIDTH 5 0
BBX 6 12 0 0
BITMAP
04
0C
08
08
18
10
30
20
60
40
C0
80
ENDCHAR
STARTCHAR 20AB
ENCODING 8363
SWIDTH 420 0
DWIDTH 7 0
BBX 7 12 0 0
BITMAP
7C
7E
7E
66
F6
F6
66
66
7E
7C
7E
7E
ENDCHAR
STARTCHAR 20AC
ENCODING 8364
SWIDTH 600 0
DWIDTH 10 0
BBX 8 12 1 0
BITMAP
7E
7F
7F
63
F8
F8
F8
F8
60
7F
7F
7F
ENDCHAR
STARTCHAR 2122
ENCODING 8482
SWIDTH 600 0
DWIDTH 10 0
BBX 10 6 0 6
BITMAP
7680
B6C0
2740
2740
2540
2440
ENDCHAR
STARTCHAR 215B
ENCODING 8539
SWIDTH 600 0
DWIDTH 10 0
BBX 9 12 1 0
BITMAP
4200
C600
C400
4C00
4800
5800
1380
3680
2680
2780
6680
4780
ENDCHAR
STARTCHAR 215C
ENCODING 8540
SWIDTH 660 0
DWIDTH 11 0
BBX 10 12 1 0
BITMAP
E100
E300
2200
E600
2400
EC00
0BC0
1BC0
1240
33C0
2240
63C0
ENDCHAR
STARTCHAR 215D
ENCODING 8541
SWIDTH 660 0
DWIDTH 11 0
BBX 10 12 1 0
BITMAP
E100
E300
8200
E600
2400
EC00
0BC0
1BC0
1240
33C0
2240
63C0
ENDCHAR
STARTCHAR 215E
ENCODING 8542
SWIDTH 600 0
DWIDTH 10 0
BBX 9 12 1 0
BITMAP
E200
E600
6400
6C00
4800
D800
1780
3680
2480
6780
4480
C780
ENDCHAR
STARTCHAR 2190
ENCODING 8592
SWIDTH 420 0
DWIDTH 7 0
BBX 7 5 0 2
BITMAP
60
FE
FE
60
20
ENDCHAR
STARTCHAR 2191
ENCODING 8593
SWIDTH 360 0
DWIDTH 6 0
BBX 6 6 0 2
BITMAP
78
FC
B4
30
30
30
ENDCHAR
STARTCHAR 2192
ENCODING 8594
SWIDTH 420 0
DWIDTH 7 0
BBX 7 5 0 2
BITMAP
0C
FE
FE
0C
08
ENDCHAR
STARTCHAR 2193
ENCODING 8595
SWIDTH 360 0
DWIDTH 6 0
BBX 6 6 0 2
BITMAP
30
30
30
FC
78
38
ENDCHAR
STARTCHAR 2194
ENCODING 8596
SWIDTH 480 0
DWIDTH 8 0
BBX 8 5 0 2
BITMAP
63
FF
FF
63
26
ENDCHAR
STARTCHAR 2195
ENCODING 8597
SWIDTH 360 0
DWIDTH 6 0
BBX 6 8 0 2
BITMAP
78
7C
F4
30
30
FC
78
38
ENDCHAR
STARTCHAR 2196
ENCODING 8598
SWIDTH 360 0
DWIDTH 6 0
BBX 6 6 0 2
BITMAP
30
78
F0
78
4C
04
ENDCHAR
STARTCHAR 2197
ENCODING 8599
SWIDTH 360 0
DWIDTH 6 0
BBX 5 6 1 2
BITMAP
70
78
38
68
C8
80
ENDCHAR
STARTCHAR 2198
ENCODING 8600
SWIDTH 360 0
DWIDTH 6 0
BBX 6 6 0 2
BITMAP
40
E4
74
1C
0C
38
ENDCHAR
STARTCHAR 2199
ENCODING 8601
SWIDTH 360 0
DWIDTH 6 0
BBX 6 5 0 3
BITMAP
4C
58
F0
E0
78
ENDCHAR
STARTCHAR 220F
ENCODING 8719
SWIDTH 480 0
DWIDTH 8 0
BBX 8 12 0 0
BITMAP
FF
FF
34
34
34
34
34
34
34
34
34
34
ENDCHAR
STARTCHAR 2211
ENCODING 8721
SWIDTH 360 0
DWIDTH 6 0
BBX 7 12 0 0
BITMAP
FE
FC
40
60
30
30
30
30
60
60
FC
FE
ENDCHAR
STARTCHAR 2212
ENCODING 8722
SWIDTH 420 0
DWIDTH 7 0
BBX 7 2 0 5
BITMAP
FE
FE
ENDCHAR
STARTCHAR 221A
ENCODING 8730
SWIDTH 480 0
DWIDTH 8 0
BBX 13 15 0 0
BITMAP
01F8
01F8
0100
0100
0300
0300
0300
0300
0300
F200
3200
3200
1E00
1E00
1E00
ENDCHAR
STARTCHAR 2260
ENCODING 8800
SWIDTH 420 0
DWIDTH 7 0
BBX 7 7 0 2
BITMAP
08
FE
FE
10
FE
FE
30
ENDCHAR
STARTCHAR 2264
ENCODING 8804
SWIDTH 360 0
DWIDTH 6 0
BBX 6 11 0 1
BITMAP
0C
3C
F0
C0
E0
78
1C
0C
00
FC
FC
ENDCHAR
STARTCHAR 2265
ENCODING 8805
SWIDTH 360 0
DWIDTH 6 0
BBX 6 12 0 0
BITMAP
80
E0
F0
3C
0C
0C
3C
F0
C0
00
FC
FC
ENDCHAR
ENDFONT
